<?xml version="1.0" encoding="utf-8"?>
<!-- Generator: Adobe Illustrator 23.0.4, SVG Export Plug-In . SVG Version: 6.00 Build 0)  -->
<svg version="1.1" id="レイヤー_1" xmlns="http://www.w3.org/2000/svg" xmlns:xlink="http://www.w3.org/1999/xlink" x="0px"
	 y="0px" viewBox="0 0 512.8 445.2" style="enable-background:new 0 0 512.8 445.2;" xml:space="preserve">
<style type="text/css">
	.st0{fill:#191919;}
	.st1{fill:#FFFFFF;}
</style>
<circle class="st0" cx="256.4" cy="222.7" r="186.5"/>
<g>
	<g>
		<path class="st1" d="M152.3,102c1-1.6,1.1-1.8,1.4-2.1c0.6-0.5,1.2-0.1,1.4,0c0.5,0.6,0.1,1.1-0.5,2.2c-1.2,1.9,0.8,10.6,3.3,13.7
			c0.8,1,3.9,3.6,7.2,0.9c2.5-2,3-5.1,2.7-6.7c-0.6-4.1-4.5-9-5.4-10.1c-0.5-0.6-3.1-3.3-3.6-3.8c-0.5-0.7-0.9-1.6-0.2-2.3
			c0.5-0.4,1-0.1,1.6,0.5c1.2,1.5,2.9,3.6,6.7,4.3c0.8,0.2,1.6,0.2,2.3,0.1c2.1-0.2,2.5,0,2.9,0.4c0.5,0.6,0.4,1.4,0,1.8
			c-1.1,0.9-3.6,0-5.3-0.7c-0.7-0.2-4-1.6-4.1-1.6c-0.1,0.1,0.1,0.4,0.2,0.4c2,2.5,4.5,5.5,6,8.6c2,4.1,0.7,8.6-2.4,11.1
			c-3.1,2.5-7.1,2-9.6-1c-2.5-3-3.2-6.9-3.9-10.7c0-0.3-0.4-2.1-0.4-2.1c-0.1-0.1-0.2,0-0.3,0c-0.2,0.2-0.8,1.5-1,1.7
			c-1,0.8-2.8-0.5-2.8-0.5c-0.1-0.1-0.1-0.3,0-0.4c0,0,1.1-0.7,1.2-0.8S151.3,103.6,152.3,102z"/>
	</g>
	<g>
		<path class="st1" d="M187.6,79.3c0.3,0.6,0.2,1.6-0.8,2.1c-0.3,0.1-0.4,0.2-1.9,0.4c-0.5,0.1-1.1,0.2-1.5,0.4
			c-1.2,0.6-1.6,1.8-1.1,2.9c0.1,0.3,0.9,1.4,1.1,1.7c0.1,0.3,0.7,2.1,0.8,2.5c0.4,1.1,1.4,3.7,1.7,4.4c0.2,0.4,0.7,1.3,1.4,1
			c0.5-0.3,1.1-1.2,1.3-1.5c1.2-2,1.9-3.3,3.8-4.2c3.1-1.5,6.3-0.5,7.5,1.9c1.7,3.5-1.7,8.1-5.8,10.2c-0.4,0.2-0.8,0.4-0.9,0.2
			c-0.1-0.1,0.5-0.6,0.7-0.8c3.2-2.6,4.8-6.2,3.4-8.9c-1.5-3-4.2-1.9-4.8-1.6c-1,0.5-2.3,1.5-2.7,4c-0.4,2.5-0.5,3.2-1.4,3.7
			c-1.2,0.6-2.9-0.3-4-2.5c-0.6-1.2-2.5-6.8-3-7.9c-0.4-1-1-2.6,0.9-4.7c1.3-1.5,1.8-2.1,1.4-2.9c-0.3-0.5-0.6-0.8-1.1-1.1
			c-0.1-0.1-0.3-0.2-0.2-0.3C182.5,77.7,186.8,77.6,187.6,79.3z"/>
	</g>
	<g>
		<path class="st1" d="M208.6,76.9c0-0.1,0.1-0.3,0.2-0.3c0.1,0,1.8,0,2.2-0.1c0.9-0.2,5-2.1,5-2.2c0.4-0.5-0.3-3.7-0.3-3.8
			c-0.2-0.8-0.5-1.7-1.4-2.5c-0.6-0.4-0.7-0.5-0.7-0.6c-0.1-0.2,0.3-0.3,0.4-0.4c2.1-0.5,3.6,0.4,3.8,1.2c0,0-0.2,4.3-0.1,4.9
			c0,0.2,0.2,0.3,0.4,0.2c0.2,0,1.6-0.5,1.8-0.6c2.3-0.6,4.4,0.1,5.1,3c0.6,2.5,1,8-0.3,10.7c-0.6,1.2-1.7,2.4-2.7,2.7
			c-1.2,0.3-1.7-0.7-2.4-1.7c-0.1-0.2-0.6-0.8-0.7-0.9c0-0.1,0-0.2,0.1-0.2c0.1,0,0.7,0,0.8,0c0.7,0,1.3-0.1,1.6-0.2
			c0.9-0.2,2-0.9,2.1-4.5c0-1.3,0.1-4-0.3-5.7c-0.5-2.2-1.8-2-2.7-1.8c-1,0.2-2.7,1.1-2.8,1.5c-0.1,0.2-0.1,0.3-0.1,1.5
			c-0.2,4.5-1.4,12.9-4,13.6c-0.7,0.2-1.1-0.2-1.2-0.8c-0.2-0.7,0-1,1.4-3.5c0.6-1.1,1.6-2.9,2.2-8c0.1-0.3,0.1-1.4,0.1-1.6
			c0-0.1-0.1-0.2-0.3-0.2c-0.7,0.2-3.3,2.1-3.9,2.3C210.7,79.2,208.8,77.6,208.6,76.9z M230.8,67.5c0.1,0.5-0.1,1.3-0.6,1.4
			c-0.4,0.1-0.7,0-2-0.9c-0.8-0.6-1.2-0.7-2.7-1.3c-0.2-0.1-0.6-0.2-0.6-0.4c0-0.1,0.2-0.3,0.5-0.4C229.4,65,230.7,67.1,230.8,67.5z
			 M231.9,78.3c-0.3,0.1-2-0.4-2.3-0.4c-0.2,0-1,0.1-1.1,0c0-0.2,0.9-1,1-1.2c0.9-1.2,1-1.3,0.8-2.1c-0.1-0.5-0.8-2.5-3.4-3
			c-0.3-0.1-0.8-0.2-0.9-0.3c0-0.2,0.1-0.2,0.2-0.2c4-1,6.4,2.6,6.8,4.2C233.1,75.7,233.2,78,231.9,78.3z M232.7,64.3
			c0.1,0.4,0,1-0.6,1.1c-0.7,0.2-1.1-0.2-1.9-0.7c-0.6-0.4-2.1-0.9-3.2-1c-0.3,0-0.5-0.1-0.5-0.2c-0.1-0.2,0.6-0.6,1-0.7
			C231.4,61.8,232.5,63.7,232.7,64.3z"/>
	</g>
	<g>
		<path class="st1" d="M249.7,63.1c0-0.5-0.2-1-0.5-1.4c-0.1-0.2-0.6-0.8-0.6-0.9c0-0.4,0.7-0.7,1.3-0.7c1.3,0,1.8,0.7,2.3,1.4
			c0.2,0.2,0.5,0.3,1.5,0.6c0.6,0.2,1.8,0.5,1.9,1.4c0,1.2-1.8,1.8-4.4,2.6c-0.3,0.1-0.3,0.2-0.6,1.3c-0.4,1.6-2.9,12.5-5.9,12.6
			c-0.9,0-1-0.6-1-0.9c0-0.4,0.1-0.6,1-2c3.4-5.2,4.3-10.4,4.3-10.5c0-0.3-0.2-0.3-0.7-0.3c-3.8-0.3-3.8-2.5-3.8-2.5
			c0-0.1,0-0.4,0.2-0.4c0.1,0,0.2,0,0.9,0.4c0.4,0.2,1.3,0.7,2.5,0.6c0.1,0,1.2,0,1.4-0.2C249.6,63.9,249.7,63.4,249.7,63.1z
			 M259.2,83.1c-0.4,2.8-2.8,3.5-4.5,3.6c-3,0.1-4.9-2-4.9-3.6c0-2.1,2.2-3.2,5.1-3.3c0.3,0,1.4,0,1.7,0c0.3,0,0.4,0,0.4-0.4
			c0-0.5-0.2-2.6-0.2-3.1c-0.1-3.5,0.1-5.2,2.8-6.8c2-1.2,2.2-1.3,2.2-2.1c0-0.7-0.7-1.4-0.9-1.6c-0.3-0.3-0.4-0.4-0.4-0.5
			c0-0.1,0.1-0.2,0.2-0.2c0.2,0,1.2,0.3,1.9,0.5c2.2,0.8,2.4,2.8,2.4,3.2c0,1.2-0.8,1.7-1.5,1.7c0,0-0.4,0-0.7-0.1
			c-1.2-0.4-1.4-0.5-1.7-0.5c-0.8,0-1.8,0.5-2.3,1c-0.7,0.7-0.7,1.9-0.7,2.7c0,0.8,0.4,5.8,1.4,6.4c0.3,0.2,1.8,0.7,2.1,0.9
			c0.7,0.3,2.6,1.3,2.6,2.5c0,0.5-0.2,1.1-0.8,1.1c-0.3,0-0.5-0.1-1-0.5c-0.9-0.8-2.4-1.7-2.8-1.5C259.3,82.6,259.3,82.7,259.2,83.1
			z M254.6,81.3c-0.7,0-3.6,0.1-3.6,1.8c0,0.8,1,1.7,2.9,1.7c3.1-0.1,3.5-2.5,3.3-3C257.1,81.3,255.3,81.3,254.6,81.3z M253.4,63
			c0-0.2-1.1-0.8-1.3-0.8c-0.5,0-0.7,1.3-0.7,1.4c0,0.1,0,0.2,0.1,0.2C251.5,63.9,253.4,63.5,253.4,63z"/>
	</g>
	<g>
		<path class="st1" d="M289.7,67.9c0,0.1,0,0.2,0,0.4c-0.1,1-0.1,2.1-0.4,3.5c-0.5,2.1-1.6,4.9-5.2,8.5c-3.3,3.3-5.1,3.7-6.4,3.4
			c-2.1-0.4-3.2-4.1-2.4-7.9c0.4-1.7,1.4-4.8,5.2-7.2c4.9-3.2,9.1-2.3,10.9-1.9c2.9,0.6,4.1,1.5,4.8,2.1c3,2.4,4.4,6.2,3.5,10.3
			c-0.9,4.1-4.3,8.6-10.3,9.3c-2.9,0.4-5,0.1-5.5,0c-0.1,0-0.3-0.1-0.3-0.3c0-0.1,0.1-0.1,0.9-0.3c3.5-0.6,10.9-1.8,12.6-9.6
			c0.3-1.2,1.8-8.7-6.8-10.6C289.8,67.4,289.7,67.7,289.7,67.9z M277.4,75.3c-0.4,2-0.2,5,1.7,5.4c0.9,0.2,1.7,0,4.6-2.8
			c2.2-2.2,4.4-5.4,5.1-8.5c0.4-1.9,0.3-2.1-0.1-2.2C285.7,66.6,278.7,69.3,277.4,75.3z"/>
	</g>
	<g>
		<path class="st1" d="M326.9,80.5c0.1,0.5,0.3,0.6,1.4,1.4c3.4,2.2,4.8,5.9,2.8,10.2c-2.4,5.1-7.7,6.4-11.8,4.8
			c-0.5-0.2-0.5-0.2-1.3,0.1c-1,0.4-2.7,1-5.1,1.1c-0.9,0-2,0-2.1-0.1c-0.1-0.1-0.2-0.2-0.1-0.3c0.1-0.1,0.9-0.3,1.1-0.3
			c2.5-0.4,4.7-1.5,4.9-1.9c0.1-0.3-0.7-1.5-0.8-1.7c-1.7-3.9-0.3-7.3,0.5-9c0.2-0.4,1.2-2.2,1.4-2.5c0-0.1,0.1-0.3,0-0.4
			c-0.5-0.2-5.2,2.3-6.5,5c-0.2,0.4-0.6,2.4-0.8,2.8c-0.3,0.7-1.2,1.1-1.8,0.8c-1.1-0.5-2.2-3.7-0.1-8.1c0.6-1.3,1.5-2.7,2.5-4
			c1.5-1.8,1.7-2,1.9-2.5c0.2-0.5,0.3-1,0.1-1.8c-0.1-0.4-0.1-0.6-0.1-0.7c0.1-0.3,0.9-0.2,1.2,0c1.1,0.5,1.6,2.8,1.2,3.5
			c-0.2,0.4-0.8,0.9-1.3,1.2c-2.3,1.7-3.6,3.5-4.4,5.2c-1,2.1-0.3,2.5-0.3,2.6c0.3,0.1,0.7-0.1,2.1-1.2c3.2-2.5,4.6-3.1,7.1-4.1
			c0.5-0.2,0.5-0.3,1.1-1c2.3-2.9,4.1-2.8,5-2.4C326.3,78,326.7,79.6,326.9,80.5z M323.8,86.8c0.3-0.6,1-2.2,1.3-4
			c0.1-0.6,0-0.7-0.4-0.9c-0.7-0.3-3.2-0.9-4.8-0.5c-0.7,0.1-1.5,1.8-1.8,2.5c-2.9,6.2-0.2,9.7,0.5,9.9
			C319.6,93.9,322.5,89.5,323.8,86.8z M320.9,79.8c0,0.1-0.1,0.1,0,0.1c0.1,0,0.6,0,0.7,0c0.5,0,1.3,0.1,2.5,0.2c0.9,0.1,1,0.1,1,0
			c0-0.1,0.2-1.7-0.7-2.1C322.7,77.3,320.9,79.7,320.9,79.8z M321,94.8c-0.1,0.2,0,0.3,0.2,0.4c1,0.5,5.5,0.8,8-4.7
			c0.5-1,1.7-4.1,0.1-6.2c-0.7-0.9-1.5-1.4-1.8-1.5c-0.2-0.1-0.3,0-0.4,0.1c0,0.1,0,0.2-0.1,0.7c-0.1,0.6-0.3,2.1-1.5,4.6
			c-1.5,3.2-3.3,5.4-4.4,6.4C321.1,94.6,321,94.7,321,94.8z"/>
	</g>
	<g>
		<path class="st1" d="M355.8,99.1c-0.4,0.5-1.4,0.9-2.2,0.2c-0.2-0.2-0.3-0.3-1.2-1.6c-0.3-0.5-0.6-0.9-1-1.2
			c-1-0.8-2.3-0.7-3.1,0.3c-0.2,0.2-0.9,1.5-1,1.7c-0.2,0.2-1.6,1.5-1.9,1.8c-0.9,0.8-2.7,2.8-3.2,3.5c-0.3,0.4-0.9,1.2-0.3,1.7
			c0.5,0.4,1.6,0.5,1.9,0.5c2.3,0.2,3.8,0.3,5.4,1.6c2.7,2.1,3.1,5.5,1.5,7.6c-2.4,3.1-8,2-11.7-0.9c-0.3-0.3-0.7-0.5-0.5-0.7
			c0.1-0.1,0.8,0.2,1,0.3c3.7,1.8,7.7,1.6,9.5-0.7c2.1-2.7-0.1-4.6-0.6-5c-0.9-0.7-2.4-1.4-4.8-0.7c-2.4,0.7-3.1,0.9-3.9,0.3
			c-1.1-0.8-1-2.7,0.6-4.7c0.8-1.1,5.1-5.2,5.9-6.1c0.8-0.8,1.9-2,4.7-1.2c1.9,0.5,2.7,0.7,3.2,0c0.4-0.5,0.4-0.9,0.5-1.5
			c0-0.1,0.1-0.4,0.2-0.4C355,93.8,356.9,97.7,355.8,99.1z"/>
	</g>
	<g>
		<path class="st1" d="M371.6,119.6c-0.2,0.2-0.3,0.2-1.2,0.5c-1.3,0.4-2.4,0.9-3.7,2c-2.5,2-3.3,4.8-2.6,5.6
			c0.3,0.4,0.5,0.4,2.4,0.2c0.4-0.1,1.3-0.1,1.5,0.1c0.1,0.1,0,0.2-0.1,0.3c-0.1,0.1-0.5,0.3-0.6,0.3c-1.4,0.7-1.6,0.8-2.2,1.2
			c-0.4,0.3-0.7,0.7-0.9,1c-0.2,0.3-0.5,0.8-0.7,0.9c-0.5,0.4-1.2,0.1-1.5-0.3c-1.3-1.6-1.2-6.9,3.5-10.7c0.7-0.6,4-2.7,4.7-3.2
			c0.5-0.4,1.1-1.1,1.3-1.4c0.5-0.7,0.5-0.8,0.7-0.9c0.1-0.1,0.2,0,0.2,0.1C373.3,116.3,372.2,119,371.6,119.6z M380.9,132.2
			c0,2.1-1,4.5-3,6.1c-0.5,0.4-1.7,1.3-2.7,0.1c-1-1.2,0.4-2.3,0.7-2.6c2.1-1.7,3.1-2.5,3.4-4.9c0-0.4,0-2,0.1-2.1
			c0.1-0.1,0.2,0,0.3,0.1C379.8,128.9,380.9,130.4,380.9,132.2z"/>
	</g>
	<g>
		<path class="st1" d="M397.1,148.9c1.4,1.3,1.5,1.5,1.7,1.8c0.4,0.7-0.2,1.2-0.4,1.3c-0.7,0.3-1.1-0.1-2-1
			c-1.6-1.6-10.5-1.6-14.1,0.2c-1.2,0.6-4.4,2.9-2.5,6.8c1.4,2.8,4.3,4.1,5.9,4.2c4.2,0.3,9.8-2.4,11.1-3c0.7-0.4,3.9-2.3,4.5-2.6
			c0.8-0.4,1.8-0.5,2.3,0.4c0.3,0.6-0.1,1-0.9,1.4c-1.7,0.8-4.1,2-5.7,5.5c-0.3,0.8-0.5,1.5-0.6,2.2c-0.3,2.1-0.5,2.5-1.1,2.7
			c-0.7,0.3-1.5,0.1-1.7-0.4c-0.6-1.2,0.9-3.5,1.8-5c0.4-0.6,2.5-3.5,2.4-3.6c-0.1-0.1-0.4,0.1-0.4,0.1c-2.8,1.4-6.4,3.2-9.8,3.9
			c-4.4,1-8.5-1.3-10.3-4.8c-1.7-3.5-0.4-7.4,3.1-9.1c3.5-1.7,7.5-1.6,11.3-1.4c0.3,0,2.1,0.1,2.2,0.1c0.1,0,0.1-0.2,0-0.3
			c-0.1-0.3-1.3-1.1-1.4-1.4c-0.6-1.1,1.1-2.6,1.1-2.6c0.1-0.1,0.3-0.1,0.4,0.1c0,0.1,0.4,1.2,0.5,1.4
			C394.7,145.9,395.7,147.6,397.1,148.9z"/>
	</g>
	<g>
		<path class="st1" d="M411.2,188.4c-0.6,0.1-1.6-0.1-1.9-1.2c-0.1-0.3-0.1-0.4,0.1-2c0.1-0.5,0.1-1.1,0-1.5c-0.3-1.3-1.4-2-2.6-1.7
			c-0.3,0.1-1.6,0.6-1.9,0.7c-0.3,0.1-2.2,0.2-2.7,0.2c-1.2,0.1-3.9,0.5-4.7,0.7c-0.5,0.1-1.4,0.4-1.2,1.2c0.1,0.6,0.9,1.4,1.2,1.6
			c1.7,1.6,2.7,2.6,3.2,4.6c0.8,3.3-1,6.3-3.6,6.9c-3.8,0.9-7.5-3.5-8.6-8c-0.1-0.4-0.2-0.8,0.1-0.9c0.2,0,0.5,0.6,0.6,0.8
			c1.8,3.7,5,6,7.9,5.4c3.3-0.8,2.8-3.7,2.6-4.3c-0.3-1.1-1-2.6-3.3-3.5c-2.4-1-3-1.2-3.2-2.2c-0.3-1.3,0.9-2.7,3.3-3.3
			c1.3-0.3,7.2-0.9,8.4-1.1c1.1-0.2,2.7-0.4,4.4,2c1.1,1.6,1.6,2.3,2.5,2c0.6-0.1,0.9-0.4,1.3-0.9c0.1-0.1,0.3-0.2,0.4-0.2
			C413.9,183.8,412.9,188,411.2,188.4z"/>
	</g>
	<g>
		<path class="st1" d="M408.6,209.2c0.1,0,0.3,0.1,0.3,0.3c0,0.1-0.4,1.8-0.4,2.1c0,0.9,1,5.3,1,5.4c0.4,0.5,3.6,0.5,3.8,0.5
			c0.8,0,1.8-0.1,2.7-0.8c0.6-0.5,0.6-0.6,0.7-0.6c0.2,0,0.3,0.4,0.3,0.5c0,2.1-1.2,3.4-2,3.4c0,0-4.2-1.2-4.8-1.1
			c-0.2,0-0.3,0.1-0.3,0.4c0,0.2,0.2,1.6,0.2,1.9c0,2.4-1.1,4.3-4,4.3c-2.5,0-8.1-0.8-10.3-2.6c-1.1-0.9-2-2.2-2-3.2
			c0-1.2,1.1-1.5,2.2-1.9c0.2-0.1,1-0.4,1.1-0.4c0.1,0,0.2,0.1,0.2,0.2c0,0.1-0.2,0.7-0.2,0.8c-0.1,0.7-0.2,1.3-0.2,1.6
			c0,0.9,0.5,2.1,4,3c1.3,0.3,3.9,0.9,5.6,0.9c2.2,0,2.4-1.3,2.4-2.3c0-1-0.5-2.8-0.8-3.1c-0.2-0.1-0.3-0.2-1.4-0.5
			c-4.4-1.2-12.3-4.2-12.4-6.8c0-0.7,0.4-1,1-1c0.7,0,0.9,0.2,3.1,2.1c1,0.9,2.5,2.2,7.3,3.8c0.3,0.1,1.3,0.4,1.5,0.4
			c0.1,0,0.3,0,0.3-0.2c0-0.7-1.3-3.7-1.4-4.3C405.9,210.7,407.9,209.2,408.6,209.2z M402.2,231.6c0-0.4,0.8-1.8,0.9-2.2
			c0.1-0.2,0.1-1,0.2-1c0.2,0,0.8,1,0.9,1.2c0.9,1.2,1,1.3,1.9,1.3c0.5,0,2.6-0.3,3.6-2.7c0.1-0.3,0.3-0.8,0.5-0.8
			c0.2,0,0.2,0.1,0.2,0.2c0.1,4.1-4,5.6-5.6,5.7C404.5,233.4,402.2,232.9,402.2,231.6z M413,232.9c-0.5,0-1.3-0.4-1.3-0.9
			c0-0.4,0.2-0.7,1.4-1.7c0.8-0.7,1-1,1.9-2.3c0.1-0.2,0.3-0.5,0.5-0.5c0.1,0,0.3,0.3,0.3,0.5C415.8,232.1,413.4,232.9,413,232.9z
			 M415.7,235.4c-0.4,0-0.9-0.2-0.9-0.8c0-0.7,0.4-1.1,1.1-1.7c0.5-0.5,1.3-1.8,1.7-2.9c0.1-0.3,0.2-0.4,0.3-0.4
			c0.3,0,0.5,0.8,0.5,1.1C418.4,234.7,416.3,235.4,415.7,235.4z"/>
	</g>
	<g>
		<path class="st1" d="M391.3,257.4c-2.6-1-2.8-3.5-2.4-5.2c0.7-3,3.1-4.3,4.7-3.9c2,0.4,2.6,2.9,2,5.7c-0.1,0.3-0.4,1.4-0.4,1.6
			c-0.1,0.3-0.1,0.4,0.2,0.5c0.5,0.1,2.6,0.4,3,0.5c3.4,0.8,5.1,1.3,6,4.3c0.7,2.2,0.7,2.4,1.6,2.6c0.7,0.2,1.6-0.4,1.8-0.5
			c0.3-0.2,0.5-0.3,0.6-0.3c0.1,0,0.1,0.1,0.1,0.3c0,0.2-0.5,1.1-0.9,1.7c-1.3,2-3.2,1.7-3.7,1.6c-1.2-0.3-1.4-1.2-1.3-1.8
			c0,0,0.1-0.4,0.3-0.7c0.7-1.1,0.8-1.2,0.9-1.6c0.2-0.8,0-1.9-0.4-2.5c-0.5-0.9-1.7-1.2-2.4-1.3c-0.8-0.2-5.7-0.9-6.6-0.1
			c-0.3,0.2-1.1,1.6-1.3,1.8c-0.5,0.6-1.9,2.2-3.1,1.9c-0.5-0.1-1-0.5-0.9-1.1c0.1-0.3,0.2-0.5,0.7-0.9c0.9-0.7,2.2-1.9,2.1-2.4
			C391.8,257.5,391.6,257.5,391.3,257.4z M394.1,253.3c0.2-0.7,0.8-3.5-0.9-3.9c-0.8-0.2-1.9,0.6-2.3,2.5c-0.7,3,1.6,4,2.2,3.9
			C393.6,255.7,394,254,394.1,253.3z M412.9,252.7c0.5,0.1,1,0,1.5-0.1c0.2-0.1,0.9-0.4,1-0.4c0.4,0.1,0.5,0.8,0.4,1.4
			c-0.3,1.3-1.1,1.6-1.9,2c-0.3,0.1-0.4,0.4-0.9,1.3c-0.3,0.6-0.9,1.7-1.8,1.5c-1.2-0.3-1.4-2.1-1.6-4.8c0-0.3-0.1-0.4-1.2-0.9
			c-1.5-0.7-11.5-5.7-10.9-8.6c0.2-0.8,0.8-0.8,1.1-0.8c0.4,0.1,0.6,0.2,1.7,1.5c4.3,4.5,9.1,6.5,9.3,6.6c0.3,0.1,0.4-0.2,0.5-0.6
			c1.1-3.6,3.3-3.2,3.4-3.1c0.1,0,0.4,0.1,0.3,0.3c0,0.1-0.1,0.2-0.6,0.8c-0.3,0.3-0.9,1.1-1.2,2.3c0,0.1-0.3,1.2-0.1,1.4
			C412.2,252.4,412.7,252.6,412.9,252.7z M412.2,256.3c0.2,0,1-0.9,1.1-1.1c0.1-0.5-1.1-1-1.2-1.1c-0.1,0-0.2,0-0.2,0
			C411.8,254.3,411.8,256.2,412.2,256.3z"/>
	</g>
	<g>
		<path class="st1" d="M399.3,290.4c-0.1,0-0.2,0-0.3-0.1c-1-0.3-2-0.6-3.3-1.2c-1.9-0.9-4.4-2.6-7.1-7c-2.4-4-2.4-5.8-1.9-7
			c0.9-1.9,4.7-2.2,8.2-0.5c1.5,0.7,4.3,2.4,5.9,6.7c2,5.5,0.2,9.4-0.6,11c-1.2,2.6-2.3,3.6-3.1,4.2c-3,2.4-7,2.9-10.8,1.1
			c-3.8-1.8-7.4-6.2-6.8-12.1c0.3-2.9,1-4.9,1.2-5.3c0.1-0.1,0.2-0.3,0.3-0.2c0.1,0,0.1,0.1,0,1c-0.2,3.6-0.7,11.1,6.5,14.5
			c1.1,0.5,8.1,3.7,11.8-4.2C399.7,290.7,399.5,290.5,399.3,290.4z M394.9,276.8c-1.9-0.9-4.8-1.4-5.7,0.4c-0.4,0.8-0.4,1.7,1.7,5.1
			c1.6,2.6,4.2,5.5,7.1,6.8c1.7,0.8,1.9,0.8,2.1,0.4C401.4,286.8,400.3,279.4,394.9,276.8z"/>
	</g>
	<g>
		<path class="st1" d="M378.6,323.9c-0.5,0-0.7,0.1-1.7,1.1c-2.9,2.8-6.9,3.3-10.5,0.4c-4.5-3.5-4.5-9-2-12.6
			c0.3-0.4,0.3-0.5,0.2-1.3c-0.1-1.1-0.4-2.9,0-5.2c0.2-0.9,0.4-1.9,0.5-2c0.1-0.1,0.2-0.1,0.3-0.1c0.1,0.1,0.1,1,0.1,1.2
			c-0.2,2.6,0.4,5,0.8,5.2c0.2,0.2,1.6-0.3,1.9-0.4c4.2-0.8,7.1,1.4,8.7,2.6c0.4,0.3,1.8,1.7,2.2,1.9c0.1,0.1,0.3,0.2,0.4,0
			c0.3-0.4-1-5.6-3.4-7.5c-0.4-0.3-2.2-1.2-2.5-1.4c-0.6-0.5-0.8-1.4-0.4-2c0.8-1,4.1-1.3,8,1.7c1.2,0.9,2.3,2.1,3.3,3.4
			c1.4,1.9,1.6,2.1,2,2.5c0.5,0.4,0.9,0.5,1.7,0.5c0.4,0,0.6,0,0.7,0.1c0.2,0.2,0,0.9-0.2,1.2c-0.8,1-3.1,0.9-3.7,0.4
			c-0.3-0.3-0.6-1-0.9-1.5c-1.1-2.7-2.6-4.3-4.1-5.5c-1.8-1.4-2.4-0.9-2.5-0.8c-0.2,0.3,0,0.7,0.7,2.3c1.7,3.7,2,5.1,2.4,7.9
			c0.1,0.5,0.2,0.6,0.7,1.3c2.4,2.9,1.8,4.6,1.2,5.4C381.2,323.8,379.5,323.8,378.6,323.9z M366,314.8c-0.2-0.1-0.3-0.1-0.4,0.1
			c-0.7,0.8-2,5.2,2.8,8.9c0.9,0.7,3.6,2.6,6,1.5c1-0.4,1.7-1.1,1.9-1.4c0.1-0.2,0.1-0.3,0-0.4c-0.1-0.1-0.1-0.1-0.6-0.3
			c-0.6-0.2-1.9-0.8-4.1-2.5c-2.8-2.2-4.5-4.5-5.3-5.7C366.1,314.9,366.1,314.9,366,314.8z M373.2,319.4c0.6,0.4,1.9,1.4,3.6,2.2
			c0.6,0.2,0.7,0.2,1-0.1c0.5-0.6,1.5-2.9,1.6-4.5c0-0.7-1.4-1.9-2-2.4c-5.4-4.2-9.5-2.4-9.8-1.7
			C367.1,313.7,370.8,317.5,373.2,319.4z M380.6,318.1c-0.1,0-0.1-0.1-0.1,0c0,0.1-0.2,0.6-0.2,0.7c-0.1,0.5-0.3,1.2-0.8,2.4
			c-0.3,0.8-0.3,0.9-0.2,1c0.1,0.1,1.6,0.6,2.2-0.2C382.7,320.4,380.7,318.2,380.6,318.1z"/>
	</g>
	<g>
		<path class="st1" d="M354,347.8c-0.4-0.5-0.6-1.5,0.3-2.2c0.2-0.2,0.4-0.3,1.8-0.8c0.5-0.2,1-0.4,1.4-0.7c1-0.8,1.2-2.1,0.4-3.1
			c-0.2-0.2-1.2-1.2-1.4-1.4c-0.2-0.2-1.1-1.9-1.4-2.3c-0.6-1-2.1-3.3-2.6-3.9c-0.3-0.4-1-1.1-1.6-0.6c-0.5,0.4-0.8,1.4-1,1.8
			c-0.7,2.2-1.2,3.6-2.8,4.9c-2.7,2.2-6.1,1.8-7.7-0.2c-2.5-3-0.1-8.3,3.5-11.2c0.3-0.3,0.7-0.5,0.8-0.3c0.1,0.1-0.3,0.7-0.5,0.9
			c-2.6,3.2-3.3,7.1-1.4,9.4c2.1,2.6,4.5,0.9,5,0.5c0.9-0.7,1.9-2,1.7-4.5c-0.2-2.6-0.2-3.2,0.6-3.9c1-0.8,2.9-0.3,4.4,1.6
			c0.8,1,4,6.1,4.6,7.1c0.6,0.9,1.6,2.3,0.2,4.8c-0.9,1.7-1.3,2.4-0.7,3.2c0.4,0.5,0.8,0.6,1.3,0.8c0.1,0.1,0.3,0.1,0.3,0.3
			C359.3,348.2,355.2,349.2,354,347.8z"/>
	</g>
	<g>
		<path class="st1" d="M316.1,364.8c-2-0.5-4.1-2-5.3-4.2c-0.3-0.5-0.9-1.9,0.5-2.6c1.4-0.7,2.2,0.9,2.4,1.2c1.2,2.4,1.8,3.6,4,4.4
			c0.3,0.1,1.9,0.4,2,0.6c0,0.1,0,0.2-0.2,0.3C319.5,364.5,317.8,365.2,316.1,364.8z M330.5,358.6c-0.1-0.2-0.1-0.3-0.2-1.3
			c-0.1-1.3-0.4-2.5-1.1-4.1c-1.4-2.9-4-4.3-4.9-3.8c-0.5,0.2-0.5,0.4-0.7,2.3c0,0.4-0.2,1.3-0.4,1.4c-0.1,0-0.2,0-0.3-0.2
			c-0.1-0.1-0.2-0.5-0.2-0.6c-0.3-1.5-0.4-1.8-0.7-2.4c-0.2-0.5-0.5-0.8-0.7-1.1c-0.2-0.3-0.6-0.7-0.7-0.8c-0.3-0.6,0.2-1.2,0.7-1.4
			c1.8-0.9,7,0.3,9.7,5.8c0.4,0.8,1.7,4.5,2.1,5.3c0.3,0.6,0.8,1.3,1,1.6c0.6,0.6,0.6,0.7,0.7,0.9c0,0.1-0.1,0.2-0.1,0.2
			C333.3,361,330.9,359.4,330.5,358.6z"/>
	</g>
	<g>
		<path class="st1" d="M296.2,376.8c-1.6,1-1.8,1.1-2.2,1.2c-0.8,0.2-1.2-0.5-1.2-0.6c-0.2-0.7,0.4-1,1.4-1.7
			c1.9-1.2,3.9-9.9,3-13.8c-0.3-1.3-1.9-4.9-6.1-4c-3.1,0.7-4.9,3.3-5.4,4.8c-1.3,4,0.1,10.1,0.4,11.5c0.2,0.8,1.4,4.3,1.5,5
			c0.2,0.8,0.1,1.9-0.9,2.1c-0.6,0.1-1-0.3-1.2-1.2c-0.4-1.8-1.1-4.5-4.1-6.8c-0.7-0.5-1.3-0.8-2-1.1c-1.9-0.8-2.3-1.1-2.4-1.7
			c-0.2-0.7,0.3-1.5,0.8-1.6c1.3-0.3,3.3,1.6,4.4,2.9c0.5,0.5,2.9,3.2,3,3.2c0.1,0,0-0.4,0-0.4c-0.7-3.1-1.6-7-1.6-10.4
			c0-4.5,3.2-8,7-8.9c3.8-0.9,7.3,1.3,8.2,5.1c0.9,3.8-0.2,7.6-1.2,11.3c-0.1,0.2-0.6,2.1-0.6,2.1c0,0.1,0.2,0.1,0.3,0.1
			c0.3-0.1,1.4-1,1.7-1.1c1.2-0.3,2.3,1.7,2.3,1.7c0,0.2,0,0.3-0.2,0.3c-0.1,0-1.2,0.2-1.4,0.2C299.6,375.2,297.8,375.7,296.2,376.8
			z"/>
	</g>
	<g>
		<path class="st1" d="M254.6,381.6c0-0.6,0.5-1.5,1.6-1.6c0.3,0,0.4,0,1.9,0.5c0.5,0.2,1,0.3,1.5,0.3c1.3,0,2.3-0.9,2.2-2.2
			c0-0.3-0.3-1.7-0.3-2c0-0.3,0.3-2.2,0.3-2.6c0.1-1.2,0.4-3.9,0.3-4.7c0-0.5-0.1-1.5-0.9-1.5c-0.6,0-1.5,0.6-1.8,0.8
			c-1.9,1.3-3.1,2.1-5.2,2.1c-3.4,0.1-5.9-2.3-6-4.9c-0.1-3.9,5-6.6,9.7-6.7c0.4,0,0.9,0,0.9,0.2c0,0.2-0.7,0.3-0.9,0.4
			c-4,1-7,3.5-6.9,6.6c0.1,3.4,3,3.5,3.6,3.5c1.1,0,2.8-0.4,4.1-2.5c1.4-2.1,1.8-2.7,2.9-2.7c1.3,0,2.5,1.5,2.5,4
			c0,1.3-0.7,7.3-0.7,8.5c-0.1,1.1-0.2,2.8-2.9,3.9c-1.8,0.8-2.6,1.1-2.5,2c0,0.6,0.2,1,0.6,1.4c0.1,0.1,0.2,0.3,0.1,0.4
			C258.6,385.2,254.7,383.4,254.6,381.6z"/>
	</g>
	<g>
		<path class="st1" d="M207.5,375.4c0.1-0.4,0.5-0.9,1-0.7c0.7,0.2,0.9,0.6,1.4,1.5c0.4,0.6,1.5,1.7,2.4,2.3
			c0.3,0.2,0.4,0.3,0.3,0.4c-0.1,0.3-0.8,0.3-1.2,0.2C207.5,378.1,207.3,376,207.5,375.4z M210.6,373.3c0.1-0.5,0.6-1.1,1.2-1
			c0.4,0.1,0.6,0.3,1.4,1.7c0.5,0.9,0.7,1.2,1.8,2.3c0.1,0.1,0.4,0.4,0.4,0.6c0,0.1-0.3,0.2-0.6,0.2
			C210.7,376.2,210.5,373.7,210.6,373.3z M214.3,363.1c0.3,0.1,1.6,1.2,1.9,1.4c0.2,0.1,1,0.3,1,0.4c0,0.2-1.2,0.5-1.4,0.6
			c-1.4,0.6-1.5,0.7-1.7,1.5c-0.1,0.5-0.3,2.6,1.7,4.2c0.2,0.2,0.7,0.5,0.6,0.6c0,0.2-0.2,0.2-0.3,0.1c-4-0.9-4.6-5.2-4.3-6.8
			C212.1,364.9,213,362.8,214.3,363.1z M234.6,374.6c0,0.1-0.2,0.2-0.3,0.2c-0.1,0-1.6-0.8-2-0.9c-0.9-0.2-5.4-0.2-5.5-0.2
			c-0.6,0.3-1.3,3.4-1.4,3.6c-0.2,0.8-0.3,1.8,0.2,2.8c0.3,0.7,0.4,0.7,0.4,0.8c0,0.2-0.4,0.2-0.6,0.1c-2.1-0.5-3.1-1.9-2.9-2.7
			c0,0,2.1-3.8,2.2-4.4c0-0.2-0.1-0.3-0.3-0.4c-0.2,0-1.6-0.2-1.9-0.3c-2.4-0.5-3.9-2.1-3.3-4.9c0.5-2.5,2.6-7.7,4.9-9.5
			c1.1-0.8,2.6-1.4,3.6-1.2c1.2,0.3,1.2,1.4,1.4,2.6c0,0.2,0.2,1,0.2,1.1c0,0.1-0.1,0.1-0.2,0.1c-0.1,0-0.6-0.3-0.7-0.4
			c-0.6-0.3-1.2-0.5-1.5-0.6c-0.9-0.2-2.2,0-3.8,3.2c-0.6,1.2-1.8,3.6-2.2,5.2c-0.5,2.2,0.7,2.6,1.6,2.8c1,0.2,2.9,0.1,3.2-0.1
			c0.2-0.1,0.2-0.2,0.8-1.2c2.2-4,6.9-11,9.5-10.5c0.7,0.2,0.9,0.7,0.8,1.2c-0.1,0.7-0.4,0.9-2.8,2.5c-1.1,0.8-2.7,1.9-5.4,6.2
			c-0.2,0.3-0.7,1.2-0.8,1.4c0,0.1,0,0.3,0.2,0.3c0.7,0.2,3.9-0.5,4.5-0.3C233.8,371.6,234.8,373.9,234.6,374.6z"/>
	</g>
	<g>
		<path class="st1" d="M191.8,346.8c1.6-2.3,4.1-1.9,5.6-1.2c2.8,1.3,3.5,4,2.8,5.4c-0.9,1.9-3.4,1.9-6,0.6
			c-0.2-0.1-1.3-0.7-1.5-0.8c-0.3-0.1-0.4-0.2-0.6,0.1c-0.2,0.4-1,2.4-1.2,2.8c-1.5,3.2-2.4,4.6-5.5,4.9c-2.3,0.2-2.5,0.2-2.9,0.9
			c-0.3,0.6,0,1.6,0.1,1.9c0.2,0.4,0.2,0.5,0.2,0.6c0,0.1-0.2,0.1-0.3,0c-0.2-0.1-1-0.8-1.5-1.3c-1.6-1.7-0.9-3.5-0.7-4
			c0.5-1.1,1.5-1.1,2.1-0.9c0,0,0.4,0.2,0.6,0.4c0.9,0.9,1,1,1.3,1.2c0.7,0.3,1.8,0.4,2.5,0.1c1-0.3,1.5-1.4,1.8-2.1
			c0.3-0.7,2.2-5.4,1.6-6.4c-0.2-0.3-1.3-1.4-1.5-1.7c-0.5-0.6-1.7-2.3-1.2-3.4c0.2-0.5,0.7-0.9,1.3-0.6c0.3,0.1,0.4,0.3,0.7,0.9
			c0.5,1.1,1.4,2.6,1.8,2.6C191.5,347.2,191.6,347.1,191.8,346.8z M191.5,368.9c-0.2,0.4-0.3,0.9-0.2,1.5c0,0.2,0.2,1,0.2,1.1
			c-0.2,0.3-0.9,0.3-1.5,0c-1.2-0.6-1.3-1.4-1.5-2.3c0-0.3-0.3-0.5-1-1.2c-0.5-0.4-1.4-1.2-1-2.1c0.5-1.1,2.4-0.9,5.1-0.4
			c0.3,0,0.4,0,1.1-0.9c1-1.3,8.2-9.9,10.9-8.6c0.8,0.4,0.7,0.9,0.5,1.2c-0.2,0.4-0.3,0.5-1.8,1.3c-5.4,3.1-8.4,7.4-8.5,7.5
			c-0.1,0.3,0.1,0.4,0.5,0.6c3.3,1.9,2.3,3.9,2.3,4c-0.1,0.1-0.2,0.3-0.4,0.3c-0.1-0.1-0.2-0.1-0.6-0.7c-0.2-0.4-0.8-1.1-1.9-1.7
			c-0.1,0-1.1-0.5-1.4-0.4C191.9,368.2,191.6,368.6,191.5,368.9z M188.1,367.4c-0.1,0.2,0.7,1.2,0.8,1.3c0.5,0.2,1.3-0.9,1.3-0.9
			c0-0.1,0-0.2,0-0.2C190.2,367.4,188.3,366.9,188.1,367.4z M195.2,350.4c0.7,0.3,3.3,1.6,4,0c0.3-0.7-0.1-2-1.9-2.8
			c-2.8-1.3-4.3,0.7-4.3,1.2C192.9,349.4,194.5,350.1,195.2,350.4z"/>
	</g>
	<g>
		<path class="st1" d="M157.8,347.1c0.1-0.1,0.1-0.2,0.2-0.3c0.5-0.9,1-1.8,1.9-2.9c1.3-1.7,3.6-3.7,8.4-5.3
			c4.4-1.5,6.2-1.1,7.2-0.3c1.7,1.3,1.1,5.1-1.3,8.2c-1.1,1.3-3.3,3.7-7.9,4.2c-5.8,0.7-9.2-1.9-10.6-3.1c-2.3-1.8-3-3.1-3.4-4
			c-1.7-3.5-1.2-7.5,1.4-10.8c2.6-3.3,7.7-5.8,13.4-3.8c2.7,0.9,4.5,2.1,4.9,2.4c0.1,0.1,0.2,0.2,0.1,0.4c-0.1,0.1-0.1,0.1-1-0.2
			c-3.4-1-10.6-3.2-15.6,3.1c-0.8,1-5.4,7.1,1.5,12.5C157.5,347.4,157.7,347.2,157.8,347.1z M172.1,345.8c1.3-1.6,2.4-4.4,0.9-5.6
			c-0.7-0.6-1.6-0.8-5.4,0.5c-2.9,1-6.3,2.9-8.3,5.4c-1.2,1.5-1.2,1.7-0.9,2C160.8,350,168.3,350.6,172.1,345.8z"/>
	</g>
	<g>
		<path class="st1" d="M129.9,319.4c0.1-0.5,0-0.7-0.7-1.9c-2.1-3.4-1.7-7.4,2-10.4c4.4-3.6,9.8-2.4,12.8,0.8
			c0.3,0.4,0.4,0.4,1.2,0.5c1.1,0.1,2.9,0.3,5.1,1.2c0.8,0.4,1.8,0.9,1.9,1c0.1,0.1,0.1,0.2,0,0.3c-0.1,0.1-0.9-0.1-1.2-0.2
			c-2.5-0.7-4.9-0.7-5.2-0.4c-0.2,0.2,0,1.6,0,1.9c-0.2,4.3-2.9,6.6-4.4,7.9c-0.4,0.3-2,1.4-2.4,1.7c-0.1,0.1-0.2,0.2-0.1,0.4
			c0.3,0.4,5.7,0.3,8.1-1.6c0.4-0.3,1.6-1.9,2-2.2c0.6-0.5,1.6-0.5,2,0.1c0.8,1,0.4,4.3-3.5,7.4c-1.1,0.9-2.5,1.8-4,2.5
			c-2.1,1-2.4,1.1-2.8,1.4c-0.4,0.4-0.7,0.7-0.9,1.5c-0.1,0.4-0.1,0.6-0.2,0.7c-0.2,0.2-0.9-0.3-1.1-0.5c-0.8-0.9-0.2-3.2,0.4-3.7
			c0.3-0.3,1.1-0.4,1.7-0.5c2.8-0.5,4.8-1.5,6.3-2.8c1.8-1.5,1.4-2.2,1.4-2.2c-0.2-0.3-0.7-0.2-2.4,0.2c-4,0.8-5.4,0.8-8.2,0.6
			c-0.5,0-0.6,0-1.4,0.4c-3.3,1.7-4.9,0.8-5.5,0C129.3,321.9,129.7,320.3,129.9,319.4z M141.5,309.1c0.2-0.1,0.1-0.3,0-0.4
			c-0.7-0.8-4.6-3.1-9.3,0.7c-0.9,0.7-3.3,2.9-2.8,5.5c0.2,1.1,0.7,1.9,0.9,2.2c0.1,0.2,0.3,0.2,0.4,0.1c0.1-0.1,0.1-0.1,0.4-0.6
			c0.3-0.5,1.2-1.7,3.3-3.5c2.7-2.2,5.4-3.4,6.8-3.9C141.3,309.3,141.4,309.2,141.5,309.1z M135,322.6c0.1,0,0.1-0.1,0.1-0.1
			c0-0.1-0.5-0.3-0.6-0.3c-0.5-0.2-1.1-0.6-2.2-1.3c-0.7-0.5-0.8-0.5-0.9-0.4c-0.1,0.1-0.9,1.4-0.3,2.2
			C132.3,324.2,134.9,322.7,135,322.6z M135.5,315.2c-0.5,0.4-1.8,1.5-2.9,3c-0.4,0.5-0.3,0.6-0.1,1c0.5,0.6,2.5,2.2,4,2.6
			c0.7,0.2,2.2-1,2.8-1.4c5.3-4.3,4.4-8.7,3.9-9.1C142.3,310.5,137.9,313.2,135.5,315.2z"/>
	</g>
	<g>
		<path class="st1" d="M112,290.1c0.6-0.3,1.6-0.2,2.1,0.8c0.1,0.3,0.2,0.4,0.3,1.9c0.1,0.5,0.2,1.1,0.4,1.5
			c0.6,1.2,1.8,1.7,2.9,1.1c0.3-0.1,1.4-0.9,1.7-1.1c0.3-0.1,2.1-0.7,2.5-0.8c1.1-0.4,3.7-1.3,4.4-1.7c0.4-0.2,1.3-0.7,1-1.4
			c-0.3-0.5-1.2-1.1-1.5-1.3c-2-1.2-3.2-2-4.1-3.8c-1.5-3.1-0.4-6.3,2-7.5c3.5-1.7,8.1,1.7,10.1,5.9c0.2,0.4,0.4,0.8,0.1,0.9
			c-0.1,0.1-0.6-0.5-0.8-0.7c-2.6-3.2-6.2-4.8-8.9-3.5c-3,1.5-1.9,4.2-1.6,4.8c0.5,1,1.5,2.3,4,2.7c2.5,0.4,3.2,0.5,3.6,1.5
			c0.6,1.2-0.3,2.9-2.5,4c-1.2,0.6-6.9,2.5-8,2.9c-1.1,0.4-2.6,1-4.7-0.9c-1.5-1.3-2.1-1.8-2.9-1.4c-0.5,0.3-0.8,0.6-1.1,1.1
			c-0.1,0.1-0.2,0.3-0.3,0.2C110.5,295.2,110.4,290.9,112,290.1z"/>
	</g>
	<g>
		<path class="st1" d="M104,249.3c0.9-1.9,2.9-3.6,5.3-4.2c0.6-0.1,2.1-0.4,2.4,1.1c0.4,1.5-1.3,1.9-1.7,2c-2.6,0.6-3.9,0.9-5.2,2.9
			c-0.2,0.3-0.9,1.8-1.1,1.8c-0.1,0-0.2-0.1-0.2-0.2C103.6,252.7,103.3,250.9,104,249.3z M106.8,264.7c0.3-0.1,0.4,0,1.3,0.1
			c1.3,0.2,2.6,0.2,4.2-0.2c3.2-0.7,5.1-2.9,4.8-3.9c-0.1-0.5-0.3-0.6-2.1-1.2c-0.4-0.1-1.2-0.5-1.3-0.7c0-0.1,0.1-0.2,0.2-0.2
			c0.1,0,0.5-0.1,0.6-0.1c1.5,0,1.8,0,2.5-0.1c0.5-0.1,0.9-0.3,1.2-0.5c0.3-0.2,0.8-0.5,1-0.5c0.6-0.1,1.1,0.4,1.2,1
			c0.5,2-1.9,6.7-7.9,8.1c-0.9,0.2-4.8,0.7-5.6,0.8c-0.6,0.1-1.4,0.5-1.8,0.6c-0.7,0.4-0.8,0.5-1,0.5c-0.1,0-0.2-0.1-0.2-0.2
			C103.8,266.9,106,264.9,106.8,264.7z"/>
	</g>
	<g>
		<path class="st1" d="M96.9,227.4c-0.7-1.8-0.7-2-0.7-2.4c0-0.8,0.7-1,0.9-1c0.7,0,0.9,0.6,1.4,1.8c0.7,2.1,8.8,6,12.8,5.9
			c1.3,0,5.2-0.8,5.1-5.1c-0.1-3.2-2.1-5.5-3.6-6.3c-3.6-2.1-9.9-2.1-11.3-2c-0.8,0-4.5,0.4-5.2,0.4c-0.9,0-1.9-0.3-1.9-1.3
			c0-0.6,0.5-0.9,1.4-0.9c1.9,0,4.6-0.1,7.5-2.6c0.6-0.6,1.1-1.1,1.5-1.7c1.2-1.7,1.5-2,2.2-2c0.7,0,1.4,0.6,1.4,1.1
			c0,1.4-2.3,2.8-3.8,3.7c-0.6,0.4-3.8,2.1-3.8,2.2c0,0.1,0.4,0.1,0.4,0.1c3.2-0.1,7.2-0.1,10.5,0.6c4.4,1,7.2,4.8,7.2,8.8
			c0.1,3.9-2.8,6.9-6.7,6.9c-3.9,0.1-7.4-1.8-10.8-3.6c-0.2-0.1-1.9-1-1.9-1c-0.1,0-0.2,0.1-0.2,0.3c0,0.3,0.7,1.6,0.7,1.9
			c0,1.3-2.1,1.9-2.2,1.9c-0.2,0-0.3-0.1-0.3-0.2c0-0.1,0.1-1.3,0.1-1.4C97.8,231.2,97.6,229.2,96.9,227.4z"/>
	</g>
	<g>
		<path class="st1" d="M101.5,185.5c0.6,0.1,1.4,0.8,1.1,1.9c-0.1,0.3-0.1,0.4-0.9,1.7c-0.3,0.5-0.5,0.9-0.6,1.4
			c-0.3,1.3,0.4,2.4,1.6,2.7c0.3,0.1,1.7,0.1,2,0.2c0.3,0.1,2.1,0.8,2.5,1c1.1,0.4,3.7,1.3,4.5,1.4c0.5,0.1,1.4,0.3,1.6-0.5
			c0.1-0.6-0.2-1.6-0.3-2c-0.8-2.2-1.3-3.6-0.9-5.6c0.8-3.4,3.6-5.2,6.2-4.6c3.8,0.9,5.2,6.4,4.2,10.9c-0.1,0.4-0.2,0.8-0.4,0.8
			c-0.2,0-0.2-0.8-0.2-1c0-4.1-1.8-7.6-4.8-8.3c-3.3-0.7-4.1,2.1-4.3,2.7c-0.2,1.1-0.3,2.8,1.4,4.6c1.7,1.9,2.2,2.4,1.9,3.4
			c-0.3,1.3-2,2-4.4,1.5c-1.3-0.3-6.9-2.3-8-2.7c-1.1-0.3-2.6-0.8-3.1-3.7c-0.3-1.9-0.5-2.7-1.4-2.9c-0.6-0.1-1,0-1.5,0.2
			c-0.1,0-0.3,0.1-0.4,0C97.1,188.5,99.7,185.1,101.5,185.5z"/>
	</g>
	<g>
		<path class="st1" d="M112.9,167.7c-0.1-0.1-0.2-0.2-0.1-0.4c0-0.1,1.2-1.4,1.3-1.7c0.4-0.8,1.5-5.2,1.5-5.3
			c-0.1-0.7-3-2.1-3.2-2.2c-0.8-0.4-1.6-0.7-2.8-0.5c-0.7,0.2-0.8,0.2-0.9,0.2c-0.2-0.1-0.1-0.5,0-0.6c0.9-1.9,2.6-2.5,3.3-2.2
			c0,0,3.2,2.9,3.8,3.2c0.2,0.1,0.3,0,0.4-0.2c0.1-0.1,0.6-1.5,0.7-1.8c1-2.2,2.9-3.4,5.5-2.1c2.3,1.1,6.9,4.3,8.1,6.9
			c0.6,1.3,0.8,2.8,0.4,3.8c-0.5,1.1-1.7,0.9-2.8,0.8c-0.2,0-1,0-1.1-0.1c-0.1,0-0.1-0.1-0.1-0.2c0.1-0.1,0.5-0.6,0.5-0.6
			c0.4-0.5,0.8-1.1,0.9-1.4c0.4-0.8,0.5-2.1-2.2-4.4c-1-0.9-3.1-2.6-4.6-3.3c-2-1-2.7,0.1-3.1,1c-0.4,0.9-0.8,2.8-0.6,3.1
			c0.1,0.2,0.2,0.3,1,1c3.4,3,9.2,9.3,8,11.6c-0.3,0.6-0.8,0.7-1.4,0.5c-0.6-0.3-0.7-0.6-1.8-3.3c-0.5-1.2-1.2-3.1-4.8-6.7
			c-0.2-0.3-1-1-1.2-1.1c-0.1,0-0.2-0.1-0.3,0.1c-0.3,0.6-0.4,3.9-0.7,4.5C116,167.5,113.5,168,112.9,167.7z M118.2,141.1
			c0.3,0.2,0.7,0.6,0.5,1.1c-0.3,0.6-0.8,0.8-1.8,1c-0.7,0.2-2,1.1-2.8,1.8c-0.2,0.2-0.4,0.3-0.5,0.2c-0.2-0.1-0.1-0.9,0.1-1.2
			C115.5,140.5,117.7,140.8,118.2,141.1z M119.6,144.6c0.5,0.2,1,0.9,0.7,1.4c-0.2,0.4-0.5,0.6-2,0.9c-1,0.2-1.3,0.4-2.7,1.2
			c-0.2,0.1-0.5,0.3-0.6,0.2c-0.1,0-0.1-0.4,0-0.6C116.7,144,119.2,144.4,119.6,144.6z M128.6,150.5c-0.2,0.3-1.5,1.3-1.8,1.6
			c-0.2,0.2-0.5,0.9-0.6,0.8c-0.2-0.1-0.2-1.3-0.3-1.5c-0.3-1.5-0.3-1.6-1.1-2c-0.5-0.2-2.5-0.9-4.5,0.8c-0.2,0.2-0.7,0.5-0.8,0.5
			c-0.2-0.1-0.1-0.2-0.1-0.3c1.8-3.7,6.1-3.3,7.5-2.6C127.4,147.9,129.2,149.3,128.6,150.5z"/>
	</g>
</g>
<g>
	<path class="st1" d="M192.7,197.9c0,0.6-3.2,6.3-3.2,7.4c0,0.5,0.3,0.9,1.2,1.5c1.6,1.1,2.4,1.9,2.4,2.9c0,1.1-0.7,1.6-5,3.1
		c-1.8,0.6-2,1.1-3.2,5.3c-0.4,1.4-1.4,4.6-1.4,5.9c0,1.1,0.3,1.1,5,1.5c1.6,0.1,4.8,1.1,4.8,2.8c0,1.2-1.8,2-3.5,2
		c-1,0-5.9-0.9-6.2-0.9c-1.7,0-1.7,3.2-1.7,4.6c0.1,3,0.9,10,9.3,10c2.8,0,9.7-1.2,9.7-9.1c0-2.9-0.6-6.7-6.7-15.2
		c-0.2-0.3-0.3-0.5-0.3-0.7c0-0.6,1.5,0.7,1.7,0.8c7.7,6.3,10.8,11.6,10.8,16.3c0,6.4-6.5,12.1-14.3,12.1c-1.3,0-12.8,0-12.8-12.2
		c0-1.1,0.5-5.7,0.5-6.6c0-0.8-0.1-1.3-1.3-2.2c-2.4-1.8-3.6-3.6-3.6-5.7c0-2,0.7-4.2,5-7.7c3.5-2.8,3.9-3.1,3.9-4
		c0-0.9-0.3-1.1-1.8-2.3c-2-1.5-4.5-3.6-4.5-6.4c0-0.5,0.1-1.2,0.6-1.2c0.3,0,1.5,1.4,1.7,1.6c1.8,1.5,3.8,2.4,4.6,2.4
		c1.9,0,2.4-6,2.4-6.9c0-1.3-0.3-3.6-0.7-4.5c-0.1-0.3-0.1-0.5-0.1-0.7C188,191.7,192.7,196.1,192.7,197.9z M181.5,214.9
		c-1.5,0-4.9,2.3-4.9,4.8c0,2,2.1,4,3.4,4c0.3,0,0.6-0.2,0.7-0.5c0.6-1.1,1.6-6.9,1.6-7.2C182.4,215.5,182.4,214.9,181.5,214.9z"/>
</g>
<g>
	<path class="st1" d="M257.3,193c1.6,0,8.3,3.4,8.3,5.9c0,1.8-18,19.2-18,22.1c0,1.1,0.5,2.2,2,3.7c6,6.5,15.1,16.4,15.1,21.1
		c0,2.2-1.5,3.2-2.9,3.2c-2.1,0-2.5-1.3-3.9-5.2c-2.1-5.9-9.4-14.9-11.2-17c-2.1-2.6-2.6-3.6-2.6-5c0-1.8,0.9-3.8,5.4-9.6
		c6.7-8.3,9.1-11.8,9.1-14.3c0-1.4-0.6-2.4-1.7-3.9c-0.2-0.3-0.3-0.6-0.2-0.8C256.9,193,257.1,193,257.3,193z"/>
</g>
<g>
	<path class="st1" d="M315.5,201.9c0,0.6-1,3.2-1.1,3.7c-0.8,3.6-1.8,16.6-1.8,22.3c0,9.8,2.6,14.1,10.2,14.1c0.9,0,6.9,0,14.6-4.1
		c1-0.5,6-3.6,6.3-3.6c0.3,0,0.4,0.3,0.4,0.4c0,0.9-10.2,12.5-22.9,12.5c-7.3,0-12.8-3.5-12.8-21.1c0-3.9,1.1-20.9,1.1-24.3
		c0-1.1,0-2.5-0.7-4.2c-0.1-0.1-0.8-1.7-0.8-1.8c0-0.5,0.5-0.7,0.9-0.7C312.5,195,315.5,200.5,315.5,201.9z M335.9,208.2
		c0,0.9-0.8,2.6-2.1,2.6c-0.9,0-1.5-0.5-3.4-3.1c-1.1-1.5-1.9-2.3-4.5-4.4c-0.3-0.2-0.9-0.7-0.9-1c0-0.3,0.6-0.5,1.2-0.5
		C331.5,201.7,335.9,205.3,335.9,208.2z M342.4,201.2c0,0.8-0.5,2-1.7,2c-1.5,0-2.2-0.9-3.5-2.5c-1.1-1.2-3.8-3-5.9-3.7
		c-0.7-0.3-0.9-0.5-0.9-0.7c0-0.6,1.8-0.9,2.4-0.9C339.4,195.4,342.4,198.7,342.4,201.2z"/>
</g>
</svg>
