<?xml version="1.0" encoding="utf-8"?>
<!-- Generator: Adobe Illustrator 23.0.6, SVG Export Plug-In . SVG Version: 6.00 Build 0)  -->
<svg version="1.1" id="レイヤー_1" xmlns="http://www.w3.org/2000/svg" xmlns:xlink="http://www.w3.org/1999/xlink" x="0px"
	 y="0px" viewBox="0 0 512.8 445.2" style="enable-background:new 0 0 512.8 445.2;" xml:space="preserve">
<style type="text/css">
	.st0{stroke:#FFFFFF;stroke-miterlimit:10;}
	.st1{fill:#FFFFFF;}
</style>
<circle class="st0" cx="256.4" cy="222.6" r="215.3"/>
<g>
	<g>
		<path class="st1" d="M136.2,83.3c1.2-1.8,1.3-2.1,1.6-2.4c0.7-0.6,1.4-0.1,1.6,0c0.6,0.7,0.1,1.3-0.6,2.5
			c-1.4,2.2,0.9,12.2,3.8,15.8c0.9,1.2,4.5,4.2,8.3,1c2.9-2.3,3.5-5.9,3.1-7.7c-0.7-4.7-5.2-10.4-6.2-11.7c-0.6-0.7-3.6-3.8-4.2-4.4
			c-0.6-0.8-1-1.8-0.2-2.7c0.6-0.5,1.2-0.1,1.8,0.6c1.4,1.7,3.3,4.2,7.7,5c0.9,0.2,1.8,0.2,2.7,0.1c2.4-0.2,2.9,0,3.3,0.5
			c0.6,0.7,0.5,1.6,0,2.1c-1.3,1-4.2,0-6.1-0.8c-0.8-0.2-4.6-1.8-4.7-1.8c-0.1,0.1,0.1,0.5,0.2,0.5c2.3,2.9,5.2,6.3,6.9,9.9
			c2.3,4.7,0.8,9.9-2.8,12.8c-3.6,2.9-8.2,2.3-11.1-1.2c-2.9-3.5-3.7-8-4.5-12.4c0-0.3-0.5-2.4-0.5-2.4c-0.1-0.1-0.2,0-0.3,0
			c-0.2,0.2-0.9,1.7-1.2,2c-1.2,0.9-3.2-0.6-3.2-0.6c-0.1-0.1-0.1-0.3,0-0.5c0,0,1.3-0.8,1.4-0.9C133.4,86.5,135.1,85.1,136.2,83.3z
			"/>
	</g>
	<g>
		<path class="st1" d="M177,57.1c0.3,0.7,0.2,1.8-0.9,2.4c-0.3,0.1-0.5,0.2-2.2,0.5c-0.6,0.1-1.3,0.2-1.7,0.5
			c-1.4,0.7-1.8,2.1-1.3,3.3c0.1,0.3,1,1.6,1.3,2c0.1,0.3,0.8,2.4,0.9,2.9c0.5,1.3,1.6,4.3,2,5.1c0.2,0.5,0.8,1.5,1.6,1.2
			c0.6-0.3,1.3-1.4,1.5-1.7c1.4-2.3,2.2-3.8,4.4-4.8c3.6-1.7,7.3-0.6,8.7,2.2c2,4-2,9.3-6.7,11.8c-0.5,0.2-0.9,0.5-1,0.2
			c-0.1-0.1,0.6-0.7,0.8-0.9c3.7-3,5.5-7.2,3.9-10.3c-1.7-3.5-4.8-2.2-5.5-1.8c-1.2,0.6-2.7,1.7-3.1,4.6c-0.5,2.9-0.6,3.7-1.6,4.3
			c-1.4,0.7-3.3-0.3-4.6-2.9c-0.7-1.4-2.9-7.8-3.5-9.1c-0.5-1.2-1.2-3,1-5.4c1.5-1.7,2.1-2.4,1.6-3.3c-0.3-0.6-0.7-0.9-1.3-1.3
			c-0.1-0.1-0.3-0.2-0.2-0.3C171.1,55.2,176.1,55.1,177,57.1z"/>
	</g>
	<g>
		<path class="st1" d="M201.2,54.3c0-0.1,0.1-0.3,0.2-0.3c0.1,0,2.1,0,2.5-0.1c1-0.2,5.8-2.4,5.8-2.5c0.5-0.6-0.3-4.3-0.3-4.4
			c-0.2-0.9-0.6-2-1.6-2.9c-0.7-0.5-0.8-0.6-0.8-0.7c-0.1-0.2,0.3-0.3,0.5-0.5c2.4-0.6,4.2,0.5,4.4,1.4c0,0-0.2,5-0.1,5.7
			c0,0.2,0.2,0.3,0.5,0.2c0.2,0,1.8-0.6,2.1-0.7c2.7-0.7,5.1,0.1,5.9,3.5c0.7,2.9,1.2,9.2-0.3,12.4c-0.7,1.4-2,2.8-3.1,3.1
			c-1.4,0.3-2-0.8-2.8-2c-0.1-0.2-0.7-0.9-0.8-1c0-0.1,0-0.2,0.1-0.2s0.8,0,0.9,0c0.8,0,1.5-0.1,1.8-0.2c1-0.2,2.3-1,2.4-5.2
			c0-1.5,0.1-4.6-0.3-6.6c-0.6-2.5-2.1-2.3-3.1-2.1c-1.2,0.2-3.1,1.3-3.2,1.7c-0.1,0.2-0.1,0.3-0.1,1.7c-0.2,5.2-1.6,14.9-4.6,15.7
			c-0.8,0.2-1.3-0.2-1.4-0.9c-0.2-0.8,0-1.2,1.6-4c0.7-1.3,1.8-3.3,2.5-9.2c0.1-0.3,0.1-1.6,0.1-1.8c0-0.1-0.1-0.2-0.3-0.2
			c-0.8,0.2-3.8,2.4-4.5,2.7C203.7,57,201.5,55.1,201.2,54.3z M226.9,43.5c0.1,0.6-0.1,1.5-0.7,1.6c-0.5,0.1-0.8,0-2.3-1
			c-0.9-0.7-1.4-0.8-3.1-1.5c-0.2-0.1-0.7-0.2-0.7-0.5c0-0.1,0.2-0.3,0.6-0.5C225.2,40.6,226.7,43,226.9,43.5z M228.1,55.9
			c-0.3,0.1-2.3-0.5-2.7-0.5c-0.2,0-1.2,0.1-1.3,0c0-0.2,1-1.2,1.2-1.4c1-1.4,1.2-1.5,0.9-2.4c-0.1-0.6-0.9-2.9-3.9-3.5
			c-0.3-0.1-0.9-0.2-1-0.3c0-0.2,0.1-0.2,0.2-0.2c4.6-1.2,7.4,3,7.8,4.8C229.5,52.9,229.6,55.6,228.1,55.9z M229,39.8
			c0.1,0.5,0,1.2-0.7,1.3c-0.8,0.2-1.3-0.2-2.2-0.8c-0.7-0.5-2.4-1-3.7-1.2c-0.3,0-0.6-0.1-0.6-0.2c-0.1-0.2,0.7-0.7,1.2-0.8
			C227.5,36.9,228.8,39.1,229,39.8z"/>
	</g>
	<g>
		<path class="st1" d="M248.7,38.4c0-0.6-0.2-1.2-0.6-1.6c-0.1-0.2-0.7-0.9-0.7-1c0-0.5,0.8-0.8,1.5-0.8c1.5,0,2.1,0.8,2.7,1.6
			c0.2,0.2,0.6,0.3,1.7,0.7c0.7,0.2,2.1,0.6,2.2,1.6c0,1.4-2.1,2.1-5.1,3c-0.3,0.1-0.3,0.2-0.7,1.5c-0.5,1.8-3.3,14.4-6.8,14.5
			c-1,0-1.2-0.7-1.2-1c0-0.5,0.1-0.7,1.2-2.3c3.9-6,5-12,5-12.1c0-0.3-0.2-0.3-0.8-0.3c-4.4-0.3-4.4-2.9-4.4-2.9
			c0-0.1,0-0.5,0.2-0.5c0.1,0,0.2,0,1,0.5c0.5,0.2,1.5,0.8,2.9,0.7c0.1,0,1.4,0,1.6-0.2C248.6,39.3,248.7,38.7,248.7,38.4z
			 M259.6,61.5c-0.5,3.2-3.2,4-5.2,4.2c-3.5,0.1-5.7-2.3-5.7-4.2c0-2.4,2.5-3.7,5.9-3.8c0.3,0,1.6,0,2,0c0.3,0,0.5,0,0.5-0.5
			c0-0.6-0.2-3-0.2-3.6c-0.1-4,0.1-6,3.2-7.8c2.3-1.4,2.5-1.5,2.5-2.4c0-0.8-0.8-1.6-1-1.8c-0.3-0.3-0.5-0.5-0.5-0.6
			c0-0.1,0.1-0.2,0.2-0.2c0.2,0,1.4,0.3,2.2,0.6c2.5,0.9,2.8,3.2,2.8,3.7c0,1.4-0.9,2-1.7,2c0,0-0.5,0-0.8-0.1
			c-1.4-0.5-1.6-0.6-2-0.6c-0.9,0-2.1,0.6-2.7,1.2c-0.8,0.8-0.8,2.2-0.8,3.1c0,0.9,0.5,6.7,1.6,7.4c0.3,0.2,2.1,0.8,2.4,1
			c0.8,0.3,3,1.5,3,2.9c0,0.6-0.2,1.3-0.9,1.3c-0.3,0-0.6-0.1-1.2-0.6c-1-0.9-2.8-2-3.2-1.7C259.7,60.9,259.7,61,259.6,61.5z
			 M254.3,59.4c-0.8,0-4.2,0.1-4.2,2.1c0,0.9,1.2,2,3.3,2c3.6-0.1,4-2.9,3.8-3.5C257.2,59.4,255.1,59.4,254.3,59.4z M252.9,38.3
			c0-0.2-1.3-0.9-1.5-0.9c-0.6,0-0.8,1.5-0.8,1.6s0,0.2,0.1,0.2C250.7,39.3,252.9,38.8,252.9,38.3z"/>
	</g>
	<g>
		<path class="st1" d="M294.8,43.9c0,0.1,0,0.2,0,0.5c-0.1,1.2-0.1,2.4-0.5,4c-0.6,2.4-1.8,5.7-6,9.8c-3.8,3.8-5.9,4.3-7.4,3.9
			c-2.4-0.5-3.7-4.7-2.8-9.1c0.5-2,1.6-5.5,6-8.3c5.7-3.7,10.5-2.7,12.6-2.2c3.3,0.7,4.7,1.7,5.5,2.4c3.5,2.8,5.1,7.2,4,11.9
			c-1,4.7-5,9.9-11.9,10.7c-3.3,0.5-5.8,0.1-6.3,0c-0.1,0-0.3-0.1-0.3-0.3c0-0.1,0.1-0.1,1-0.3c4-0.7,12.6-2.1,14.5-11.1
			c0.3-1.4,2.1-10-7.8-12.2C295,43.4,294.8,43.7,294.8,43.9z M280.6,52.5c-0.5,2.3-0.2,5.8,2,6.2c1,0.2,2,0,5.3-3.2
			c2.5-2.5,5.1-6.2,5.9-9.8c0.5-2.2,0.3-2.4-0.1-2.5C290.2,42.4,282.1,45.5,280.6,52.5z"/>
	</g>
	<g>
		<path class="st1" d="M337.8,58.5c0.1,0.6,0.3,0.7,1.6,1.6c3.9,2.5,5.5,6.8,3.2,11.8c-2.8,5.9-8.9,7.4-13.6,5.5
			c-0.6-0.2-0.6-0.2-1.5,0.1c-1.2,0.5-3.1,1.2-5.9,1.3c-1,0-2.3,0-2.4-0.1c-0.1-0.1-0.2-0.2-0.1-0.3c0.1-0.1,1-0.3,1.3-0.3
			c2.9-0.5,5.4-1.7,5.7-2.2c0.1-0.3-0.8-1.7-0.9-2c-2-4.5-0.3-8.4,0.6-10.4c0.2-0.5,1.4-2.5,1.6-2.9c0-0.1,0.1-0.3,0-0.5
			c-0.6-0.2-6,2.7-7.5,5.8c-0.2,0.5-0.7,2.8-0.9,3.2c-0.3,0.8-1.4,1.3-2.1,0.9c-1.3-0.6-2.5-4.3-0.1-9.3c0.7-1.5,1.7-3.1,2.9-4.6
			c1.7-2.1,2-2.3,2.2-2.9c0.2-0.6,0.3-1.2,0.1-2.1c-0.1-0.5-0.1-0.7-0.1-0.8c0.1-0.3,1-0.2,1.4,0c1.3,0.6,1.8,3.2,1.4,4
			c-0.2,0.5-0.9,1-1.5,1.4c-2.7,2-4.2,4-5.1,6c-1.2,2.4-0.3,2.9-0.3,3c0.3,0.1,0.8-0.1,2.4-1.4c3.7-2.9,5.3-3.6,8.2-4.7
			c0.6-0.2,0.6-0.3,1.3-1.2c2.7-3.3,4.7-3.2,5.8-2.8C337.1,55.6,337.5,57.4,337.8,58.5z M334.2,65.7c0.3-0.7,1.2-2.5,1.5-4.6
			c0.1-0.7,0-0.8-0.5-1c-0.8-0.3-3.7-1-5.5-0.6c-0.8,0.1-1.7,2.1-2.1,2.9c-3.3,7.2-0.2,11.2,0.6,11.4
			C329.3,73.9,332.7,68.9,334.2,65.7z M330.8,57.7c0,0.1-0.1,0.1,0,0.1c0.1,0,0.7,0,0.8,0c0.6,0,1.5,0.1,2.9,0.2
			c1,0.1,1.2,0.1,1.2,0c0-0.1,0.2-2-0.8-2.4C332.9,54.8,330.8,57.5,330.8,57.7z M331,75c-0.1,0.2,0,0.3,0.2,0.5
			c1.2,0.6,6.3,0.9,9.2-5.4c0.6-1.2,2-4.7,0.1-7.2c-0.8-1-1.7-1.6-2.1-1.7c-0.2-0.1-0.3,0-0.5,0.1c0,0.1,0,0.2-0.1,0.8
			c-0.1,0.7-0.3,2.4-1.7,5.3c-1.7,3.7-3.8,6.2-5.1,7.4C331.1,74.7,331,74.9,331,75z"/>
	</g>
	<g>
		<path class="st1" d="M371.1,79.9c-0.5,0.6-1.6,1-2.5,0.2c-0.2-0.2-0.3-0.3-1.4-1.8c-0.3-0.6-0.7-1-1.2-1.4
			c-1.2-0.9-2.7-0.8-3.6,0.3c-0.2,0.2-1,1.7-1.2,2c-0.2,0.2-1.8,1.7-2.2,2.1c-1,0.9-3.1,3.2-3.7,4c-0.3,0.5-1,1.4-0.3,2
			c0.6,0.5,1.8,0.6,2.2,0.6c2.7,0.2,4.4,0.3,6.2,1.8c3.1,2.4,3.6,6.3,1.7,8.8c-2.8,3.6-9.2,2.3-13.5-1c-0.3-0.3-0.8-0.6-0.6-0.8
			c0.1-0.1,0.9,0.2,1.2,0.3c4.3,2.1,8.9,1.8,11-0.8c2.4-3.1-0.1-5.3-0.7-5.8c-1-0.8-2.8-1.6-5.5-0.8c-2.8,0.8-3.6,1-4.5,0.3
			c-1.3-0.9-1.2-3.1,0.7-5.4c0.9-1.3,5.9-6,6.8-7c0.9-0.9,2.2-2.3,5.4-1.4c2.2,0.6,3.1,0.8,3.7,0c0.5-0.6,0.5-1,0.6-1.7
			c0-0.1,0.1-0.5,0.2-0.5C370.2,73.8,372.4,78.3,371.1,79.9z"/>
	</g>
	<g>
		<path class="st1" d="M389.4,103.6c-0.2,0.2-0.3,0.2-1.4,0.6c-1.5,0.5-2.8,1-4.3,2.3c-2.9,2.3-3.8,5.5-3,6.5
			c0.3,0.5,0.6,0.5,2.8,0.2c0.5-0.1,1.5-0.1,1.7,0.1c0.1,0.1,0,0.2-0.1,0.3c-0.1,0.1-0.6,0.3-0.7,0.3c-1.6,0.8-1.8,0.9-2.5,1.4
			c-0.5,0.3-0.8,0.8-1,1.2s-0.6,0.9-0.8,1c-0.6,0.5-1.4,0.1-1.7-0.3c-1.5-1.8-1.4-8,4-12.4c0.8-0.7,4.6-3.1,5.4-3.7
			c0.6-0.5,1.3-1.3,1.5-1.6c0.6-0.8,0.6-0.9,0.8-1c0.1-0.1,0.2,0,0.2,0.1C391.3,99.8,390.1,102.9,389.4,103.6z M400.1,118.1
			c0,2.4-1.2,5.2-3.5,7c-0.6,0.5-2,1.5-3.1,0.1c-1.2-1.4,0.5-2.7,0.8-3c2.4-2,3.6-2.9,3.9-5.7c0-0.5,0-2.3,0.1-2.4
			c0.1-0.1,0.2,0,0.3,0.1C398.8,114.3,400.1,116.1,400.1,118.1z"/>
	</g>
	<g>
		<path class="st1" d="M418.8,137.4c1.6,1.5,1.7,1.7,2,2.1c0.5,0.8-0.2,1.4-0.5,1.5c-0.8,0.3-1.3-0.1-2.3-1.2
			c-1.8-1.8-12.1-1.8-16.3,0.2c-1.4,0.7-5.1,3.3-2.9,7.8c1.6,3.2,5,4.7,6.8,4.8c4.8,0.3,11.3-2.8,12.8-3.5c0.8-0.5,4.5-2.7,5.2-3
			c0.9-0.5,2.1-0.6,2.7,0.5c0.3,0.7-0.1,1.2-1,1.6c-2,0.9-4.7,2.3-6.6,6.3c-0.3,0.9-0.6,1.7-0.7,2.5c-0.3,2.4-0.6,2.9-1.3,3.1
			c-0.8,0.3-1.7,0.1-2-0.5c-0.7-1.4,1-4,2.1-5.8c0.5-0.7,2.9-4,2.8-4.2c-0.1-0.1-0.5,0.1-0.5,0.1c-3.2,1.6-7.4,3.7-11.3,4.5
			c-5.1,1.2-9.8-1.5-11.9-5.5c-2-4-0.5-8.5,3.6-10.5c4-2,8.7-1.8,13-1.6c0.3,0,2.4,0.1,2.5,0.1c0.1,0,0.1-0.2,0-0.3
			c-0.1-0.3-1.5-1.3-1.6-1.6c-0.7-1.3,1.3-3,1.3-3c0.1-0.1,0.3-0.1,0.5,0.1c0,0.1,0.5,1.4,0.6,1.6C416,134,417.2,135.9,418.8,137.4z
			"/>
	</g>
	<g>
		<path class="st1" d="M435.1,183c-0.7,0.1-1.8-0.1-2.2-1.4c-0.1-0.3-0.1-0.5,0.1-2.3c0.1-0.6,0.1-1.3,0-1.7c-0.3-1.5-1.6-2.3-3-2
			c-0.3,0.1-1.8,0.7-2.2,0.8c-0.3,0.1-2.5,0.2-3.1,0.2c-1.4,0.1-4.5,0.6-5.4,0.8c-0.6,0.1-1.6,0.5-1.4,1.4c0.1,0.7,1,1.6,1.4,1.8
			c2,1.8,3.1,3,3.7,5.3c0.9,3.8-1.2,7.3-4.2,8c-4.4,1-8.7-4-9.9-9.2c-0.1-0.5-0.2-0.9,0.1-1c0.2,0,0.6,0.7,0.7,0.9
			c2.1,4.3,5.8,6.9,9.1,6.2c3.8-0.9,3.2-4.3,3-5c-0.3-1.3-1.2-3-3.8-4c-2.8-1.2-3.5-1.4-3.7-2.5c-0.3-1.5,1-3.1,3.8-3.8
			c1.5-0.3,8.3-1,9.7-1.3c1.3-0.2,3.1-0.5,5.1,2.3c1.3,1.8,1.8,2.7,2.9,2.3c0.7-0.1,1-0.5,1.5-1c0.1-0.1,0.3-0.2,0.5-0.2
			C438.2,177.7,437,182.5,435.1,183z"/>
	</g>
	<g>
		<path class="st1" d="M432.1,207c0.1,0,0.3,0.1,0.3,0.3c0,0.1-0.5,2.1-0.5,2.4c0,1,1.2,6.1,1.2,6.2c0.5,0.6,4.2,0.6,4.4,0.6
			c0.9,0,2.1-0.1,3.1-0.9c0.7-0.6,0.7-0.7,0.8-0.7c0.2,0,0.3,0.5,0.3,0.6c0,2.4-1.4,3.9-2.3,3.9c0,0-4.8-1.4-5.5-1.3
			c-0.2,0-0.3,0.1-0.3,0.5c0,0.2,0.2,1.8,0.2,2.2c0,2.8-1.3,5-4.6,5c-2.9,0-9.3-0.9-11.9-3c-1.3-1-2.3-2.5-2.3-3.7
			c0-1.4,1.3-1.7,2.5-2.2c0.2-0.1,1.2-0.5,1.3-0.5s0.2,0.1,0.2,0.2c0,0.1-0.2,0.8-0.2,0.9c-0.1,0.8-0.2,1.5-0.2,1.8
			c0,1,0.6,2.4,4.6,3.5c1.5,0.3,4.5,1,6.5,1c2.5,0,2.8-1.5,2.8-2.7c0-1.2-0.6-3.2-0.9-3.6c-0.2-0.1-0.3-0.2-1.6-0.6
			c-5.1-1.4-14.2-4.8-14.3-7.8c0-0.8,0.5-1.2,1.2-1.2c0.8,0,1,0.2,3.6,2.4c1.2,1,2.9,2.5,8.4,4.4c0.3,0.1,1.5,0.5,1.7,0.5
			c0.1,0,0.3,0,0.3-0.2c0-0.8-1.5-4.3-1.6-5C429,208.7,431.3,207,432.1,207z M424.7,232.9c0-0.5,0.9-2.1,1-2.5
			c0.1-0.2,0.1-1.2,0.2-1.2c0.2,0,0.9,1.2,1,1.4c1,1.4,1.2,1.5,2.2,1.5c0.6,0,3-0.3,4.2-3.1c0.1-0.3,0.3-0.9,0.6-0.9
			c0.2,0,0.2,0.1,0.2,0.2c0.1,4.7-4.6,6.5-6.5,6.6C427.3,235,424.7,234.4,424.7,232.9z M437.1,234.4c-0.6,0-1.5-0.5-1.5-1
			c0-0.5,0.2-0.8,1.6-2c0.9-0.8,1.2-1.2,2.2-2.7c0.1-0.2,0.3-0.6,0.6-0.6c0.1,0,0.3,0.3,0.3,0.6
			C440.4,233.4,437.6,234.4,437.1,234.4z M440.3,237.3c-0.5,0-1-0.2-1-0.9c0-0.8,0.5-1.3,1.3-2c0.6-0.6,1.5-2.1,2-3.3
			c0.1-0.3,0.2-0.5,0.3-0.5c0.3,0,0.6,0.9,0.6,1.3C443.4,236.5,441,237.3,440.3,237.3z"/>
	</g>
	<g>
		<path class="st1" d="M412.1,262.7c-3-1.2-3.2-4-2.8-6c0.8-3.5,3.6-5,5.4-4.5c2.3,0.5,3,3.3,2.3,6.6c-0.1,0.3-0.5,1.6-0.5,1.8
			c-0.1,0.3-0.1,0.5,0.2,0.6c0.6,0.1,3,0.5,3.5,0.6c3.9,0.9,5.9,1.5,6.9,5c0.8,2.5,0.8,2.8,1.8,3c0.8,0.2,1.8-0.5,2.1-0.6
			c0.3-0.2,0.6-0.3,0.7-0.3c0.1,0,0.1,0.1,0.1,0.3c0,0.2-0.6,1.3-1,2c-1.5,2.3-3.7,2-4.3,1.8c-1.4-0.3-1.6-1.4-1.5-2.1
			c0,0,0.1-0.5,0.3-0.8c0.8-1.3,0.9-1.4,1-1.8c0.2-0.9,0-2.2-0.5-2.9c-0.6-1-2-1.4-2.8-1.5c-0.9-0.2-6.6-1-7.6-0.1
			c-0.3,0.2-1.3,1.8-1.5,2.1c-0.6,0.7-2.2,2.5-3.6,2.2c-0.6-0.1-1.2-0.6-1-1.3c0.1-0.3,0.2-0.6,0.8-1c1-0.8,2.5-2.2,2.4-2.8
			C412.7,262.8,412.4,262.8,412.1,262.7z M415.3,257.9c0.2-0.8,0.9-4-1-4.5c-0.9-0.2-2.2,0.7-2.7,2.9c-0.8,3.5,1.8,4.6,2.5,4.5
			C414.8,260.7,415.2,258.7,415.3,257.9z M437,257.2c0.6,0.1,1.2,0,1.7-0.1c0.2-0.1,1-0.5,1.2-0.5c0.5,0.1,0.6,0.9,0.5,1.6
			c-0.3,1.5-1.3,1.8-2.2,2.3c-0.3,0.1-0.5,0.5-1,1.5c-0.3,0.7-1,2-2.1,1.7c-1.4-0.3-1.6-2.4-1.8-5.5c0-0.3-0.1-0.5-1.4-1
			c-1.7-0.8-13.3-6.6-12.6-9.9c0.2-0.9,0.9-0.9,1.3-0.9c0.5,0.1,0.7,0.2,2,1.7c5,5.2,10.5,7.5,10.7,7.6c0.3,0.1,0.5-0.2,0.6-0.7
			c1.3-4.2,3.8-3.7,3.9-3.6c0.1,0,0.5,0.1,0.3,0.3c0,0.1-0.1,0.2-0.7,0.9c-0.3,0.3-1,1.3-1.4,2.7c0,0.1-0.3,1.4-0.1,1.6
			C436.2,256.9,436.8,257.1,437,257.2z M436.2,261.4c0.2,0,1.2-1,1.3-1.3c0.1-0.6-1.3-1.2-1.4-1.3c-0.1,0-0.2,0-0.2,0
			C435.8,259.1,435.8,261.3,436.2,261.4z"/>
	</g>
	<g>
		<path class="st1" d="M421.3,300.7c-0.1,0-0.2,0-0.3-0.1c-1.2-0.3-2.3-0.7-3.8-1.4c-2.2-1-5.1-3-8.2-8.1c-2.8-4.6-2.8-6.7-2.2-8.1
			c1-2.2,5.4-2.5,9.5-0.6c1.7,0.8,5,2.8,6.8,7.7c2.3,6.3,0.2,10.8-0.7,12.7c-1.4,3-2.7,4.2-3.6,4.8c-3.5,2.8-8.1,3.3-12.5,1.3
			c-4.4-2.1-8.5-7.2-7.8-14c0.3-3.3,1.2-5.7,1.4-6.1c0.1-0.1,0.2-0.3,0.3-0.2c0.1,0,0.1,0.1,0,1.2c-0.2,4.2-0.8,12.8,7.5,16.7
			c1.3,0.6,9.3,4.3,13.6-4.8C421.8,301.1,421.6,300.9,421.3,300.7z M416.3,285c-2.2-1-5.5-1.6-6.6,0.5c-0.5,0.9-0.5,2,2,5.9
			c1.8,3,4.8,6.3,8.2,7.8c2,0.9,2.2,0.9,2.4,0.5C423.8,296.6,422.5,288,416.3,285z"/>
	</g>
	<g>
		<path class="st1" d="M397.4,339.4c-0.6,0-0.8,0.1-2,1.3c-3.3,3.2-8,3.8-12.1,0.5c-5.2-4-5.2-10.4-2.3-14.5
			c0.3-0.5,0.3-0.6,0.2-1.5c-0.1-1.3-0.5-3.3,0-6c0.2-1,0.5-2.2,0.6-2.3c0.1-0.1,0.2-0.1,0.3-0.1c0.1,0.1,0.1,1.2,0.1,1.4
			c-0.2,3,0.5,5.8,0.9,6c0.2,0.2,1.8-0.3,2.2-0.5c4.8-0.9,8.2,1.6,10,3c0.5,0.3,2.1,2,2.5,2.2c0.1,0.1,0.3,0.2,0.5,0
			c0.3-0.5-1.2-6.5-3.9-8.7c-0.5-0.3-2.5-1.4-2.9-1.6c-0.7-0.6-0.9-1.6-0.5-2.3c0.9-1.2,4.7-1.5,9.2,2c1.4,1,2.7,2.4,3.8,3.9
			c1.6,2.2,1.8,2.4,2.3,2.9c0.6,0.5,1,0.6,2,0.6c0.5,0,0.7,0,0.8,0.1c0.2,0.2,0,1-0.2,1.4c-0.9,1.2-3.6,1-4.3,0.5
			c-0.3-0.3-0.7-1.2-1-1.7c-1.3-3.1-3-5-4.7-6.3c-2.1-1.6-2.8-1-2.9-0.9c-0.2,0.3,0,0.8,0.8,2.7c2,4.3,2.3,5.9,2.8,9.1
			c0.1,0.6,0.2,0.7,0.8,1.5c2.8,3.3,2.1,5.3,1.4,6.2C400.4,339.3,398.5,339.3,397.4,339.4z M382.9,328.9c-0.2-0.1-0.3-0.1-0.5,0.1
			c-0.8,0.9-2.3,6,3.2,10.3c1,0.8,4.2,3,6.9,1.7c1.2-0.5,2-1.3,2.2-1.6c0.1-0.2,0.1-0.3,0-0.5s-0.1-0.1-0.7-0.3
			c-0.7-0.2-2.2-0.9-4.7-2.9c-3.2-2.5-5.2-5.2-6.1-6.6C383,329,383,329,382.9,328.9z M391.2,334.2c0.7,0.5,2.2,1.6,4.2,2.5
			c0.7,0.2,0.8,0.2,1.2-0.1c0.6-0.7,1.7-3.3,1.8-5.2c0-0.8-1.6-2.2-2.3-2.8c-6.2-4.8-11-2.8-11.3-2
			C384.2,327.6,388.4,332,391.2,334.2z M399.8,332.7c-0.1,0-0.1-0.1-0.1,0c0,0.1-0.2,0.7-0.2,0.8c-0.1,0.6-0.3,1.4-0.9,2.8
			c-0.3,0.9-0.3,1-0.2,1.2s1.8,0.7,2.5-0.2C402.2,335.4,399.9,332.8,399.8,332.7z"/>
	</g>
	<g>
		<path class="st1" d="M369.1,367c-0.5-0.6-0.7-1.7,0.3-2.5c0.2-0.2,0.5-0.3,2.1-0.9c0.6-0.2,1.2-0.5,1.6-0.8
			c1.2-0.9,1.4-2.4,0.5-3.6c-0.2-0.2-1.4-1.4-1.6-1.6s-1.3-2.2-1.6-2.7c-0.7-1.2-2.4-3.8-3-4.5c-0.3-0.5-1.2-1.3-1.8-0.7
			c-0.6,0.5-0.9,1.6-1.2,2.1c-0.8,2.5-1.4,4.2-3.2,5.7c-3.1,2.5-7,2.1-8.9-0.2c-2.9-3.5-0.1-9.6,4-12.9c0.3-0.3,0.8-0.6,0.9-0.3
			c0.1,0.1-0.3,0.8-0.6,1c-3,3.7-3.8,8.2-1.6,10.8c2.4,3,5.2,1,5.8,0.6c1-0.8,2.2-2.3,2-5.2c-0.2-3-0.2-3.7,0.7-4.5
			c1.2-0.9,3.3-0.3,5.1,1.8c0.9,1.2,4.6,7,5.3,8.2c0.7,1,1.8,2.7,0.2,5.5c-1,2-1.5,2.8-0.8,3.7c0.5,0.6,0.9,0.7,1.5,0.9
			c0.1,0.1,0.3,0.1,0.3,0.3C375.2,367.5,370.4,368.6,369.1,367z"/>
	</g>
	<g>
		<path class="st1" d="M325.3,386.6c-2.3-0.6-4.7-2.3-6.1-4.8c-0.3-0.6-1-2.2,0.6-3c1.6-0.8,2.5,1,2.8,1.4c1.4,2.8,2.1,4.2,4.6,5.1
			c0.3,0.1,2.2,0.5,2.3,0.7c0,0.1,0,0.2-0.2,0.3C329.2,386.3,327.3,387.1,325.3,386.6z M341.9,379.5c-0.1-0.2-0.1-0.3-0.2-1.5
			c-0.1-1.5-0.5-2.9-1.3-4.7c-1.6-3.3-4.6-5-5.7-4.4c-0.6,0.2-0.6,0.5-0.8,2.7c0,0.5-0.2,1.5-0.5,1.6c-0.1,0-0.2,0-0.3-0.2
			c-0.1-0.1-0.2-0.6-0.2-0.7c-0.3-1.7-0.5-2.1-0.8-2.8c-0.2-0.6-0.6-0.9-0.8-1.3c-0.2-0.3-0.7-0.8-0.8-0.9c-0.3-0.7,0.2-1.4,0.8-1.6
			c2.1-1,8.1,0.3,11.2,6.7c0.5,0.9,2,5.2,2.4,6.1c0.3,0.7,0.9,1.5,1.2,1.8c0.7,0.7,0.7,0.8,0.8,1c0,0.1-0.1,0.2-0.1,0.2
			C345.2,382.2,342.4,380.4,341.9,379.5z"/>
	</g>
	<g>
		<path class="st1" d="M302.3,400.5c-1.8,1.2-2.1,1.3-2.5,1.4c-0.9,0.2-1.4-0.6-1.4-0.7c-0.2-0.8,0.5-1.2,1.6-2
			c2.2-1.4,4.5-11.4,3.5-15.9c-0.3-1.5-2.2-5.7-7-4.6c-3.6,0.8-5.7,3.8-6.2,5.5c-1.5,4.6,0.1,11.7,0.5,13.3c0.2,0.9,1.6,5,1.7,5.8
			c0.2,0.9,0.1,2.2-1,2.4c-0.7,0.1-1.2-0.3-1.4-1.4c-0.5-2.1-1.3-5.2-4.7-7.8c-0.8-0.6-1.5-0.9-2.3-1.3c-2.2-0.9-2.7-1.3-2.8-2
			c-0.2-0.8,0.3-1.7,0.9-1.8c1.5-0.3,3.8,1.8,5.1,3.3c0.6,0.6,3.3,3.7,3.5,3.7c0.1,0,0-0.5,0-0.5c-0.8-3.6-1.8-8.1-1.8-12
			c0-5.2,3.7-9.2,8.1-10.3c4.4-1,8.4,1.5,9.5,5.9c1,4.4-0.2,8.8-1.4,13c-0.1,0.2-0.7,2.4-0.7,2.4c0,0.1,0.2,0.1,0.3,0.1
			c0.3-0.1,1.6-1.2,2-1.3c1.4-0.3,2.7,2,2.7,2c0,0.2,0,0.3-0.2,0.3c-0.1,0-1.4,0.2-1.6,0.2C306.3,398.6,304.2,399.2,302.3,400.5z"/>
	</g>
	<g>
		<path class="st1" d="M254.3,406c0-0.7,0.6-1.7,1.8-1.8c0.3,0,0.5,0,2.2,0.6c0.6,0.2,1.2,0.3,1.7,0.3c1.5,0,2.7-1,2.5-2.5
			c0-0.3-0.3-2-0.3-2.3s0.3-2.5,0.3-3c0.1-1.4,0.5-4.5,0.3-5.4c0-0.6-0.1-1.7-1-1.7c-0.7,0-1.7,0.7-2.1,0.9c-2.2,1.5-3.6,2.4-6,2.4
			c-3.9,0.1-6.8-2.7-6.9-5.7c-0.1-4.5,5.8-7.6,11.2-7.7c0.5,0,1,0,1,0.2c0,0.2-0.8,0.3-1,0.5c-4.6,1.2-8.1,4-8,7.6
			c0.1,3.9,3.5,4,4.2,4c1.3,0,3.2-0.5,4.7-2.9c1.6-2.4,2.1-3.1,3.3-3.1c1.5,0,2.9,1.7,2.9,4.6c0,1.5-0.8,8.4-0.8,9.8
			c-0.1,1.3-0.2,3.2-3.3,4.5c-2.1,0.9-3,1.3-2.9,2.3c0,0.7,0.2,1.2,0.7,1.6c0.1,0.1,0.2,0.3,0.1,0.5
			C258.9,410.2,254.4,408.1,254.3,406z"/>
	</g>
	<g>
		<path class="st1" d="M200,398.8c0.1-0.5,0.6-1,1.2-0.8c0.8,0.2,1,0.7,1.6,1.7c0.5,0.7,1.7,2,2.8,2.7c0.3,0.2,0.5,0.3,0.3,0.5
			c-0.1,0.3-0.9,0.3-1.4,0.2C200,402,199.7,399.5,200,398.8z M203.5,396.4c0.1-0.6,0.7-1.3,1.4-1.2c0.5,0.1,0.7,0.3,1.6,2
			c0.6,1,0.8,1.4,2.1,2.7c0.1,0.1,0.5,0.5,0.5,0.7c0,0.1-0.3,0.2-0.7,0.2C203.7,399.8,203.4,396.9,203.5,396.4z M207.8,384.7
			c0.3,0.1,1.8,1.4,2.2,1.6c0.2,0.1,1.2,0.3,1.2,0.5c0,0.2-1.4,0.6-1.6,0.7c-1.6,0.7-1.7,0.8-2,1.7c-0.1,0.6-0.3,3,2,4.8
			c0.2,0.2,0.8,0.6,0.7,0.7c0,0.2-0.2,0.2-0.3,0.1c-4.6-1-5.3-6-5-7.8C205.3,386.7,206.3,384.3,207.8,384.7z M231.2,397.9
			c0,0.1-0.2,0.2-0.3,0.2c-0.1,0-1.8-0.9-2.3-1c-1-0.2-6.2-0.2-6.3-0.2c-0.7,0.3-1.5,3.9-1.6,4.2c-0.2,0.9-0.3,2.1,0.2,3.2
			c0.3,0.8,0.5,0.8,0.5,0.9c0,0.2-0.5,0.2-0.7,0.1c-2.4-0.6-3.6-2.2-3.3-3.1c0,0,2.4-4.4,2.5-5.1c0-0.2-0.1-0.3-0.3-0.5
			c-0.2,0-1.8-0.2-2.2-0.3c-2.8-0.6-4.5-2.4-3.8-5.7c0.6-2.9,3-8.9,5.7-11c1.3-0.9,3-1.6,4.2-1.4c1.4,0.3,1.4,1.6,1.6,3
			c0,0.2,0.2,1.2,0.2,1.3s-0.1,0.1-0.2,0.1s-0.7-0.3-0.8-0.5c-0.7-0.3-1.4-0.6-1.7-0.7c-1-0.2-2.5,0-4.4,3.7c-0.7,1.4-2.1,4.2-2.5,6
			c-0.6,2.5,0.8,3,1.8,3.2c1.2,0.2,3.3,0.1,3.7-0.1c0.2-0.1,0.2-0.2,0.9-1.4c2.5-4.6,8-12.7,11-12.1c0.8,0.2,1,0.8,0.9,1.4
			c-0.1,0.8-0.5,1-3.2,2.9c-1.3,0.9-3.1,2.2-6.2,7.2c-0.2,0.3-0.8,1.4-0.9,1.6c0,0.1,0,0.3,0.2,0.3c0.8,0.2,4.5-0.6,5.2-0.3
			C230.3,394.5,231.5,397.1,231.2,397.9z"/>
	</g>
	<g>
		<path class="st1" d="M181.8,365.8c1.8-2.7,4.7-2.2,6.5-1.4c3.2,1.5,4,4.6,3.2,6.2c-1,2.2-3.9,2.2-6.9,0.7
			c-0.2-0.1-1.5-0.8-1.7-0.9c-0.3-0.1-0.5-0.2-0.7,0.1c-0.2,0.5-1.2,2.8-1.4,3.2c-1.7,3.7-2.8,5.3-6.3,5.7c-2.7,0.2-2.9,0.2-3.3,1
			c-0.3,0.7,0,1.8,0.1,2.2c0.2,0.5,0.2,0.6,0.2,0.7s-0.2,0.1-0.3,0c-0.2-0.1-1.2-0.9-1.7-1.5c-1.8-2-1-4-0.8-4.6
			c0.6-1.3,1.7-1.3,2.4-1c0,0,0.5,0.2,0.7,0.5c1,1,1.2,1.2,1.5,1.4c0.8,0.3,2.1,0.5,2.9,0.1c1.2-0.3,1.7-1.6,2.1-2.4
			c0.3-0.8,2.5-6.2,1.8-7.4c-0.2-0.3-1.5-1.6-1.7-2c-0.6-0.7-2-2.7-1.4-3.9c0.2-0.6,0.8-1,1.5-0.7c0.3,0.1,0.5,0.3,0.8,1
			c0.6,1.3,1.6,3,2.1,3C181.5,366.3,181.6,366.2,181.8,365.8z M181.5,391.3c-0.2,0.5-0.3,1-0.2,1.7c0,0.2,0.2,1.2,0.2,1.3
			c-0.2,0.3-1,0.3-1.7,0c-1.4-0.7-1.5-1.6-1.7-2.7c0-0.3-0.3-0.6-1.2-1.4c-0.6-0.5-1.6-1.4-1.2-2.4c0.6-1.3,2.8-1,5.9-0.5
			c0.3,0,0.5,0,1.3-1c1.2-1.5,9.5-11.4,12.6-9.9c0.9,0.5,0.8,1,0.6,1.4c-0.2,0.5-0.3,0.6-2.1,1.5c-6.2,3.6-9.7,8.5-9.8,8.7
			c-0.1,0.3,0.1,0.5,0.6,0.7c3.8,2.2,2.7,4.5,2.7,4.6c-0.1,0.1-0.2,0.3-0.5,0.3c-0.1-0.1-0.2-0.1-0.7-0.8c-0.2-0.5-0.9-1.3-2.2-2
			c-0.1,0-1.3-0.6-1.6-0.5C182,390.5,181.6,391,181.5,391.3z M177.6,389.6c-0.1,0.2,0.8,1.4,0.9,1.5c0.6,0.2,1.5-1,1.5-1
			c0-0.1,0-0.2,0-0.2C180,389.6,177.8,389,177.6,389.6z M185.8,370c0.8,0.3,3.8,1.8,4.6,0c0.3-0.8-0.1-2.3-2.2-3.2
			c-3.2-1.5-5,0.8-5,1.4C183.1,368.8,185,369.6,185.8,370z"/>
	</g>
	<g>
		<path class="st1" d="M142.6,366.2c0.1-0.1,0.1-0.2,0.2-0.3c0.6-1,1.2-2.1,2.2-3.3c1.5-2,4.2-4.3,9.7-6.1c5.1-1.7,7.2-1.3,8.3-0.3
			c2,1.5,1.3,5.9-1.5,9.5c-1.3,1.5-3.8,4.3-9.1,4.8c-6.7,0.8-10.6-2.2-12.2-3.6c-2.7-2.1-3.5-3.6-3.9-4.6c-2-4-1.4-8.7,1.6-12.5
			c3-3.8,8.9-6.7,15.5-4.4c3.1,1,5.2,2.4,5.7,2.8c0.1,0.1,0.2,0.2,0.1,0.5c-0.1,0.1-0.1,0.1-1.2-0.2c-3.9-1.2-12.2-3.7-18,3.6
			c-0.9,1.2-6.2,8.2,1.7,14.4C142.2,366.5,142.5,366.3,142.6,366.2z M159.1,364.7c1.5-1.8,2.8-5.1,1-6.5c-0.8-0.7-1.8-0.9-6.2,0.6
			c-3.3,1.2-7.3,3.3-9.6,6.2c-1.4,1.7-1.4,2-1,2.3C146.1,369.5,154.7,370.2,159.1,364.7z"/>
	</g>
	<g>
		<path class="st1" d="M110.4,334.2c0.1-0.6,0-0.8-0.8-2.2c-2.4-3.9-2-8.5,2.3-12c5.1-4.2,11.3-2.8,14.8,0.9
			c0.3,0.5,0.5,0.5,1.4,0.6c1.3,0.1,3.3,0.3,5.9,1.4c0.9,0.5,2.1,1,2.2,1.2c0.1,0.1,0.1,0.2,0,0.3c-0.1,0.1-1-0.1-1.4-0.2
			c-2.9-0.8-5.7-0.8-6-0.5c-0.2,0.2,0,1.8,0,2.2c-0.2,5-3.3,7.6-5.1,9.1c-0.5,0.3-2.3,1.6-2.8,2c-0.1,0.1-0.2,0.2-0.1,0.5
			c0.3,0.5,6.6,0.3,9.3-1.8c0.5-0.3,1.8-2.2,2.3-2.5c0.7-0.6,1.8-0.6,2.3,0.1c0.9,1.2,0.5,5-4,8.5c-1.3,1-2.9,2.1-4.6,2.9
			c-2.4,1.2-2.8,1.3-3.2,1.6c-0.5,0.5-0.8,0.8-1,1.7c-0.1,0.5-0.1,0.7-0.2,0.8c-0.2,0.2-1-0.3-1.3-0.6c-0.9-1-0.2-3.7,0.5-4.3
			c0.3-0.3,1.3-0.5,2-0.6c3.2-0.6,5.5-1.7,7.3-3.2c2.1-1.7,1.6-2.5,1.6-2.5c-0.2-0.3-0.8-0.2-2.8,0.2c-4.6,0.9-6.2,0.9-9.5,0.7
			c-0.6,0-0.7,0-1.6,0.5c-3.8,2-5.7,0.9-6.3,0C109.7,337.1,110.2,335.3,110.4,334.2z M123.8,322.3c0.2-0.1,0.1-0.3,0-0.5
			c-0.8-0.9-5.3-3.6-10.7,0.8c-1,0.8-3.8,3.3-3.2,6.3c0.2,1.3,0.8,2.2,1,2.5c0.1,0.2,0.3,0.2,0.5,0.1c0.1-0.1,0.1-0.1,0.5-0.7
			c0.3-0.6,1.4-2,3.8-4c3.1-2.5,6.2-3.9,7.8-4.5C123.6,322.6,123.7,322.4,123.8,322.3z M116.3,337.9c0.1,0,0.1-0.1,0.1-0.1
			c0-0.1-0.6-0.3-0.7-0.3c-0.6-0.2-1.3-0.7-2.5-1.5c-0.8-0.6-0.9-0.6-1-0.5c-0.1,0.1-1,1.6-0.3,2.5
			C113.2,339.8,116.2,338,116.3,337.9z M116.9,329.4c-0.6,0.5-2.1,1.7-3.3,3.5c-0.5,0.6-0.3,0.7-0.1,1.2c0.6,0.7,2.9,2.5,4.6,3
			c0.8,0.2,2.5-1.2,3.2-1.6c6.1-5,5.1-10,4.5-10.5C124.7,323.9,119.6,327.1,116.9,329.4z"/>
	</g>
	<g>
		<path class="st1" d="M89.7,300.4c0.7-0.3,1.8-0.2,2.4,0.9c0.1,0.3,0.2,0.5,0.3,2.2c0.1,0.6,0.2,1.3,0.5,1.7c0.7,1.4,2.1,2,3.3,1.3
			c0.3-0.1,1.6-1,2-1.3c0.3-0.1,2.4-0.8,2.9-0.9c1.3-0.5,4.3-1.5,5.1-2c0.5-0.2,1.5-0.8,1.2-1.6c-0.3-0.6-1.4-1.3-1.7-1.5
			c-2.3-1.4-3.7-2.3-4.7-4.4c-1.7-3.6-0.5-7.3,2.3-8.7c4-2,9.3,2,11.7,6.8c0.2,0.5,0.5,0.9,0.1,1c-0.1,0.1-0.7-0.6-0.9-0.8
			c-3-3.7-7.2-5.5-10.3-4c-3.5,1.7-2.2,4.8-1.8,5.5c0.6,1.2,1.7,2.7,4.6,3.1c2.9,0.5,3.7,0.6,4.2,1.7c0.7,1.4-0.3,3.3-2.9,4.6
			c-1.4,0.7-8,2.9-9.2,3.3c-1.3,0.5-3,1.2-5.4-1c-1.7-1.5-2.4-2.1-3.3-1.6c-0.6,0.3-0.9,0.7-1.3,1.3c-0.1,0.1-0.2,0.3-0.3,0.2
			C88,306.3,87.9,301.3,89.7,300.4z"/>
	</g>
	<g>
		<path class="st1" d="M80.5,253.3c1-2.2,3.3-4.2,6.1-4.8c0.7-0.1,2.4-0.5,2.8,1.3c0.5,1.7-1.5,2.2-2,2.3c-3,0.7-4.5,1-6,3.3
			c-0.2,0.3-1,2.1-1.3,2.1c-0.1,0-0.2-0.1-0.2-0.2C80,257.2,79.7,255.1,80.5,253.3z M83.7,271.1c0.3-0.1,0.5,0,1.5,0.1
			c1.5,0.2,3,0.2,4.8-0.2c3.7-0.8,5.9-3.3,5.5-4.5c-0.1-0.6-0.3-0.7-2.4-1.4c-0.5-0.1-1.4-0.6-1.5-0.8c0-0.1,0.1-0.2,0.2-0.2
			c0.1,0,0.6-0.1,0.7-0.1c1.7,0,2.1,0,2.9-0.1c0.6-0.1,1-0.3,1.4-0.6c0.3-0.2,0.9-0.6,1.2-0.6c0.7-0.1,1.3,0.5,1.4,1.2
			c0.6,2.3-2.2,7.7-9.1,9.3c-1,0.2-5.5,0.8-6.5,0.9c-0.7,0.1-1.6,0.6-2.1,0.7c-0.8,0.5-0.9,0.6-1.2,0.6c-0.1,0-0.2-0.1-0.2-0.2
			C80.3,273.6,82.8,271.3,83.7,271.1z"/>
	</g>
	<g>
		<path class="st1" d="M72.3,228c-0.8-2.1-0.8-2.3-0.8-2.8c0-0.9,0.8-1.2,1-1.2c0.8,0,1,0.7,1.6,2.1c0.8,2.4,10.2,6.9,14.8,6.8
			c1.5,0,6-0.9,5.9-5.9c-0.1-3.7-2.4-6.3-4.2-7.3c-4.2-2.4-11.4-2.4-13-2.3c-0.9,0-5.2,0.5-6,0.5c-1,0-2.2-0.3-2.2-1.5
			c0-0.7,0.6-1,1.6-1c2.2,0,5.3-0.1,8.7-3c0.7-0.7,1.3-1.3,1.7-2c1.4-2,1.7-2.3,2.5-2.3s1.6,0.7,1.6,1.3c0,1.6-2.7,3.2-4.4,4.3
			c-0.7,0.5-4.4,2.4-4.4,2.5c0,0.1,0.5,0.1,0.5,0.1c3.7-0.1,8.3-0.1,12.1,0.7c5.1,1.2,8.3,5.5,8.3,10.2c0.1,4.5-3.2,8-7.7,8
			c-4.5,0.1-8.5-2.1-12.5-4.2c-0.2-0.1-2.2-1.2-2.2-1.2c-0.1,0-0.2,0.1-0.2,0.3c0,0.3,0.8,1.8,0.8,2.2c0,1.5-2.4,2.2-2.5,2.2
			c-0.2,0-0.3-0.1-0.3-0.2c0-0.1,0.1-1.5,0.1-1.6C73.3,232.4,73.1,230.1,72.3,228z"/>
	</g>
	<g>
		<path class="st1" d="M77.6,179.7c0.7,0.1,1.6,0.9,1.3,2.2c-0.1,0.3-0.1,0.5-1,2c-0.3,0.6-0.6,1-0.7,1.6c-0.3,1.5,0.5,2.8,1.8,3.1
			c0.3,0.1,2,0.1,2.3,0.2s2.4,0.9,2.9,1.2c1.3,0.5,4.3,1.5,5.2,1.6c0.6,0.1,1.6,0.3,1.8-0.6c0.1-0.7-0.2-1.8-0.3-2.3
			c-0.9-2.5-1.5-4.2-1-6.5c0.9-3.9,4.2-6,7.2-5.3c4.4,1,6,7.4,4.8,12.6c-0.1,0.5-0.2,0.9-0.5,0.9s-0.2-0.9-0.2-1.2
			c0-4.7-2.1-8.8-5.5-9.6c-3.8-0.8-4.7,2.4-5,3.1c-0.2,1.3-0.3,3.2,1.6,5.3c2,2.2,2.5,2.8,2.2,3.9c-0.3,1.5-2.3,2.3-5.1,1.7
			c-1.5-0.3-8-2.7-9.2-3.1c-1.3-0.3-3-0.9-3.6-4.3c-0.3-2.2-0.6-3.1-1.6-3.3c-0.7-0.1-1.2,0-1.7,0.2c-0.1,0-0.3,0.1-0.5,0
			C72.5,183.1,75.5,179.2,77.6,179.7z"/>
	</g>
	<g>
		<path class="st1" d="M90.8,159.1c-0.1-0.1-0.2-0.2-0.1-0.5c0-0.1,1.4-1.6,1.5-2c0.5-0.9,1.7-6,1.7-6.1c-0.1-0.8-3.5-2.4-3.7-2.5
			c-0.9-0.5-1.8-0.8-3.2-0.6c-0.8,0.2-0.9,0.2-1,0.2c-0.2-0.1-0.1-0.6,0-0.7c1-2.2,3-2.9,3.8-2.5c0,0,3.7,3.3,4.4,3.7
			c0.2,0.1,0.3,0,0.5-0.2c0.1-0.1,0.7-1.7,0.8-2.1c1.2-2.5,3.3-3.9,6.3-2.4c2.7,1.3,8,5,9.3,8c0.7,1.5,0.9,3.2,0.5,4.4
			c-0.6,1.3-2,1-3.2,0.9c-0.2,0-1.2,0-1.3-0.1c-0.1,0-0.1-0.1-0.1-0.2c0.1-0.1,0.6-0.7,0.6-0.7c0.5-0.6,0.9-1.3,1-1.6
			c0.5-0.9,0.6-2.4-2.5-5.1c-1.2-1-3.6-3-5.3-3.8c-2.3-1.2-3.1,0.1-3.6,1.2c-0.5,1-0.9,3.2-0.7,3.6c0.1,0.2,0.2,0.3,1.2,1.2
			c3.9,3.5,10.6,10.7,9.2,13.4c-0.3,0.7-0.9,0.8-1.6,0.6c-0.7-0.3-0.8-0.7-2.1-3.8c-0.6-1.4-1.4-3.6-5.5-7.7
			c-0.2-0.3-1.2-1.2-1.4-1.3c-0.1,0-0.2-0.1-0.3,0.1c-0.3,0.7-0.5,4.5-0.8,5.2C94.3,158.9,91.5,159.5,90.8,159.1z M96.9,128.4
			c0.3,0.2,0.8,0.7,0.6,1.3c-0.3,0.7-0.9,0.9-2.1,1.2c-0.8,0.2-2.3,1.3-3.2,2.1c-0.2,0.2-0.5,0.3-0.6,0.2c-0.2-0.1-0.1-1,0.1-1.4
			C93.8,127.7,96.3,128.1,96.9,128.4z M98.5,132.5c0.6,0.2,1.2,1,0.8,1.6c-0.2,0.5-0.6,0.7-2.3,1c-1.2,0.2-1.5,0.5-3.1,1.4
			c-0.2,0.1-0.6,0.3-0.7,0.2c-0.1,0-0.1-0.5,0-0.7C95.2,131.8,98,132.2,98.5,132.5z M108.9,139.3c-0.2,0.3-1.7,1.5-2.1,1.8
			c-0.2,0.2-0.6,1-0.7,0.9c-0.2-0.1-0.2-1.5-0.3-1.7c-0.3-1.7-0.3-1.8-1.3-2.3c-0.6-0.2-2.9-1-5.2,0.9c-0.2,0.2-0.8,0.6-0.9,0.6
			c-0.2-0.1-0.1-0.2-0.1-0.3c2.1-4.3,7-3.8,8.7-3C107.5,136.3,109.6,137.9,108.9,139.3z"/>
	</g>
</g>
<g>
	<path class="st1" d="M169.5,177.9c0,1-5.4,10.6-5.4,12.4c0,0.8,0.5,1.5,2,2.5c2.7,1.8,4,3.2,4,4.9c0,1.8-1.2,2.7-8.4,5.2
		c-3,1-3.4,1.8-5.4,8.9c-0.7,2.3-2.3,7.7-2.3,9.9c0,1.8,0.5,1.8,8.4,2.5c2.7,0.2,8.1,1.8,8.1,4.7c0,2-3,3.4-5.9,3.4
		c-1.7,0-9.9-1.5-10.4-1.5c-2.9,0-2.9,5.4-2.9,7.7c0.2,5,1.5,16.8,15.6,16.8c4.7,0,16.3-2,16.3-15.3c0-4.9-1-11.2-11.2-25.5
		c-0.3-0.5-0.5-0.8-0.5-1.2c0-1,2.5,1.2,2.9,1.3c12.9,10.6,18.1,19.5,18.1,27.3c0,10.7-10.9,20.3-24,20.3c-2.2,0-21.5,0-21.5-20.5
		c0-1.8,0.8-9.6,0.8-11.1c0-1.3-0.2-2.2-2.2-3.7c-4-3-6-6-6-9.6c0-3.4,1.2-7,8.4-12.9c5.9-4.7,6.5-5.2,6.5-6.7c0-1.5-0.5-1.8-3-3.9
		c-3.4-2.5-7.6-6-7.6-10.7c0-0.8,0.2-2,1-2c0.5,0,2.5,2.3,2.9,2.7c3,2.5,6.4,4,7.7,4c3.2,0,4-10.1,4-11.6c0-2.2-0.5-6-1.2-7.6
		c-0.2-0.5-0.2-0.8-0.2-1.2C161.7,167.5,169.5,174.9,169.5,177.9z M150.7,206.4c-2.5,0-8.2,3.9-8.2,8.1c0,3.4,3.5,6.7,5.7,6.7
		c0.5,0,1-0.3,1.2-0.8c1-1.8,2.7-11.6,2.7-12.1C152.3,207.4,152.3,206.4,150.7,206.4z"/>
</g>
<g>
	<path class="st1" d="M252.7,164.6c2.9,0,14.9,6.1,14.9,10.6c0,3.2-32.4,34.5-32.4,39.7c0,2,0.9,4,3.6,6.7
		c10.8,11.7,27.1,29.5,27.1,37.9c0,4-2.7,5.8-5.2,5.8c-3.8,0-4.5-2.3-7-9.3c-3.8-10.6-16.9-26.8-20.1-30.6c-3.8-4.7-4.7-6.5-4.7-9
		c0-3.2,1.6-6.8,9.7-17.3c12-14.9,16.4-21.2,16.4-25.7c0-2.5-1.1-4.3-3.1-7c-0.4-0.5-0.5-1.1-0.4-1.4
		C252,164.6,252.4,164.6,252.7,164.6z"/>
</g>
<g>
	<path class="st1" d="M331.8,181.6c0,1-1.7,5.6-1.9,6.4c-1.4,6.2-3.1,28.8-3.1,38.7c0,17,4.5,24.5,17.7,24.5c1.6,0,12,0,25.3-7.1
		c1.7-0.9,10.4-6.2,10.9-6.2s0.7,0.5,0.7,0.7c0,1.6-17.7,21.7-39.7,21.7c-12.7,0-22.2-6.1-22.2-36.6c0-6.8,1.9-36.3,1.9-42.2
		c0-1.9,0-4.3-1.2-7.3c-0.2-0.2-1.4-2.9-1.4-3.1c0-0.9,0.9-1.2,1.6-1.2C326.5,169.6,331.8,179.1,331.8,181.6z M367.1,192.5
		c0,1.6-1.4,4.5-3.6,4.5c-1.6,0-2.6-0.9-5.9-5.4c-1.9-2.6-3.3-4-7.8-7.6c-0.5-0.3-1.6-1.2-1.6-1.7c0-0.5,1-0.9,2.1-0.9
		C359.5,181.2,367.1,187.5,367.1,192.5z M378.4,180.3c0,1.4-0.9,3.5-2.9,3.5c-2.6,0-3.8-1.6-6.1-4.3c-1.9-2.1-6.6-5.2-10.2-6.4
		c-1.2-0.5-1.6-0.9-1.6-1.2c0-1,3.1-1.6,4.2-1.6C373.2,170.3,378.4,176,378.4,180.3z"/>
</g>
</svg>
