<?xml version="1.0" encoding="utf-8"?>
<!-- Generator: Adobe Illustrator 23.0.4, SVG Export Plug-In . SVG Version: 6.00 Build 0)  -->
<svg version="1.1" id="レイヤー_1" xmlns="http://www.w3.org/2000/svg" xmlns:xlink="http://www.w3.org/1999/xlink" x="0px"
	 y="0px" viewBox="0 0 878.5 164.4" style="enable-background:new 0 0 878.5 164.4;" xml:space="preserve">
<g>
	<path d="M58.4,58.3c4.7-5,5.3-5.6,6.6-6.2c2.6-1.3,4.5,0.6,4.8,1.2c1.2,2.4-0.4,4-3.6,7.3c-5.8,5.8-5.2,38.1,1.4,51
		c2.2,4.2,10.9,15.7,24.7,8.6c10.2-5.2,14.5-15.8,14.8-21.7c1-15.1-9.1-35.3-11.5-40c-1.4-2.7-8.5-13.9-9.8-16.2
		c-1.4-2.8-2-6.5,1.2-8.2c2.1-1.1,3.8,0.3,5.3,3.2c3.1,6.1,10.7,14.9,23.3,20.2c2.8,1.2,2.4,1.8,4.9,2c7.4,1,8.9,1.8,9.9,3.8
		c1.2,2.4,0.3,5.3-1.4,6.2c-4.4,2.3-12.8-2.9-18.1-6.4c-2.1-1.4-12.9-8.8-13.2-8.6c-0.4,0.2,0.2,1.5,0.3,1.6
		c5.2,10.2,11.8,23,14.7,35.1c3.8,15.9-4.2,31-16.9,37.5c-12.7,6.5-26.8,1.7-33.1-10.7c-6.5-12.6-6.1-26.9-5.6-40.7
		c0-0.9,0.3-7.7,0.3-7.8c-0.2-0.3-0.7-0.3-1.1-0.1c-0.9,0.5-3.9,4.8-4.9,5.2c-4,2.1-9.4-3.9-9.5-4c-0.3-0.5-0.3-1,0.2-1.3
		c0.2-0.1,4.2-1.7,4.9-2C47.7,67,53.7,63.4,58.4,58.3z"/>
	<path d="M217.6,64.4c-0.5,1.4-2.4,3.1-4.9,2.2c-0.7-0.2-1-0.4-3.8-2.7c-1-0.8-2.1-1.5-3.2-1.9c-3-1-5.8,0.2-6.8,3
		c-0.2,0.7-0.8,3.9-1,4.6c-0.2,0.7-2.4,4.7-2.9,5.6c-1.3,2.6-4,8.5-4.6,10.3c-0.4,1.1-1.1,3.4,0.7,4c1.4,0.5,3.9-0.1,4.8-0.3
		c5.4-1.4,8.8-2.1,13.4-0.5c7.8,2.7,11.4,10,9.3,16c-3.1,8.8-16.6,10.7-27.1,7.1c-0.9-0.3-2-0.7-1.8-1.3c0.1-0.4,1.8-0.2,2.4-0.1
		c9.8,1.1,18.6-2.2,20.9-9.1c2.6-7.6-3.8-10.3-5.2-10.8c-2.5-0.9-6.5-1.4-11.3,2.2c-5,3.6-6.2,4.5-8.7,3.7c-3-1.1-4.3-5.4-2.4-11
		c1.1-3,7.4-15.8,8.6-18.4c1.1-2.5,2.7-6.1,9.6-6.4c4.6-0.3,6.6-0.4,7.4-2.5c0.5-1.4,0.2-2.3-0.1-3.7c0-0.3-0.1-0.9,0.2-1
		C211.7,53.1,219,60.3,217.6,64.4z"/>
	<path d="M273.1,84.1c-0.1-0.3,0.1-0.8,0.5-0.9c0.3-0.1,5-0.5,5.9-0.9c2.4-0.9,12.9-7.5,13.1-7.6c1-1.5-2-10-2.1-10.4
		c-0.8-2.2-1.9-4.6-4.7-6.3c-1.8-1-2-1.1-2.1-1.4c-0.2-0.6,0.8-1,1.1-1.2c5.6-2,10-0.1,10.8,2.1c0,0.1,0.8,11.9,1.4,13.5
		c0.2,0.5,0.6,0.6,1.2,0.4c0.4-0.2,4.1-2,4.8-2.2c6.2-2.3,12.2-1.1,15,6.6c2.4,6.6,5.3,21.8,2.7,29.4c-1.3,3.6-3.8,7.2-6.6,8.2
		c-3.1,1.1-5-1.5-7-3.9c-0.4-0.5-2-2.1-2.1-2.4c-0.1-0.3,0-0.5,0.3-0.6c0.3-0.1,2-0.2,2.3-0.2c1.9-0.2,3.6-0.7,4.5-1
		c2.4-0.9,5.1-3.2,4.2-13.1c-0.3-3.7-1.1-11-2.7-15.4c-2.1-5.8-5.6-5-8-4.1c-2.7,1-7,4-7.3,4.9c-0.2,0.5-0.1,0.9,0.1,4
		c0.8,12.6,0.3,36-6.5,38.5c-1.8,0.7-3.1-0.2-3.6-1.7c-0.6-1.7-0.3-2.6,2.7-10c1.3-3.3,3.4-8.4,3.3-22.6c0-1-0.1-3.8-0.3-4.3
		c-0.1-0.2-0.3-0.6-0.8-0.5c-1.8,0.7-8.4,6.8-10,7.5C279.5,89.8,273.7,85.9,273.1,84.1z M337.4,80.5c-0.9,0.3-5.5-0.4-6.6-0.4
		c-0.6,0-2.8,0.7-2.9,0.4c-0.2-0.5,2-2.9,2.4-3.5c2.2-3.5,2.5-3.8,1.6-6.1c-0.5-1.4-3.1-6.6-10.3-7.1c-0.8-0.1-2.3-0.2-2.5-0.5
		c-0.2-0.5,0.1-0.6,0.4-0.7c10.7-3.9,18.4,5.2,20,9.4C340,73,340.9,79.3,337.4,80.5z M331,51.2c0.5,1.4,0.2,3.6-1.2,4.1
		c-1.2,0.4-2,0.2-5.7-2c-2.4-1.4-3.4-1.7-7.7-2.7c-0.5-0.1-1.6-0.5-1.7-0.8c-0.1-0.3,0.4-1,1.1-1.3C326.4,44.7,330.6,50.2,331,51.2z
		 M335.1,41.8c0.4,1,0.2,2.7-1.2,3.2c-1.8,0.7-3.1-0.1-5.5-1.4c-1.9-0.9-5.9-1.7-9-1.7c-0.9,0.1-1.3-0.2-1.4-0.4
		c-0.2-0.7,1.6-1.9,2.6-2.3C330.8,35.4,334.5,40.2,335.1,41.8z"/>
	<path d="M402,41.8c0.3-1.4,0.2-3-0.3-4.6c-0.2-0.5-1.3-2.7-1.2-3.1c0.3-1.2,2.5-1.5,4.4-1.1c3.8,0.9,4.9,3.4,5.9,5.9
		c0.3,0.8,1.2,1.4,3.9,2.9c1.7,0.9,5.1,2.9,4.5,5.5c-0.9,3.6-6.7,4.1-15,4.5c-0.9,0.1-1.1,0.3-2.8,3.5c-2.3,4.5-18.4,35-27.2,32.9
		c-2.6-0.6-2.6-2.4-2.3-3.4c0.3-1.3,0.7-1.8,4.6-5.2c14.2-12.8,20.7-27.6,20.8-28.1c0.2-0.9-0.4-1.1-1.9-1.6
		c-11.1-3.7-9.5-10.4-9.5-10.5c0.1-0.4,0.4-1.1,1-1c0.4,0.1,0.6,0.3,2.3,1.9c0.9,0.9,3.3,2.9,6.9,3.8c0.2,0,3.6,0.9,4.4,0.4
		C401.3,44.1,401.8,42.6,402,41.8z M415.2,108.6c-3.3,8.1-11.1,8.4-16.1,7.2c-9.1-2.2-13-9.8-11.8-14.6c1.5-6.2,9.1-7.9,17.8-5.8
		c0.8,0.2,4.3,1.2,4.9,1.4c0.9,0.2,1.4,0.2,1.6-0.7c0.3-1.4,1.5-8,1.8-9.3c2.5-10.6,4.4-15.5,13.5-18.2c6.8-2,7.5-2.1,8.1-4.6
		c0.5-2.1-1.1-4.8-1.5-5.5c-0.7-1-1-1.5-0.9-1.8c0.1-0.3,0.4-0.4,0.8-0.3c0.7,0.2,3.4,1.7,5.3,3c6,4.1,5,10,4.6,11.5
		c-0.9,3.7-3.8,4.4-5.7,3.9c-0.1,0-1.2-0.3-2.1-0.9c-3.3-2.2-3.7-2.5-4.8-2.8c-2.3-0.6-5.8,0-7.7,1.2c-2.7,1.6-3.6,5-4.2,7.4
		c-0.6,2.4-3.2,17.5-0.8,20.2c0.7,0.9,4.8,3.5,5.6,4.2c1.8,1.5,6.6,6,5.7,9.5c-0.4,1.6-1.5,3.2-3.4,2.7c-1-0.2-1.5-0.7-2.6-2.3
		c-2-2.9-5.7-7-7.2-6.7C415.7,107.3,415.6,107.7,415.2,108.6z M402.7,99.8c-2.2-0.5-10.9-2.6-12.1,2.5c-0.6,2.3,1.6,5.9,7.4,7.3
		c9.3,2.2,12.4-4.7,12.2-6.4C410.1,101.5,404.9,100.3,402.7,99.8z M413.3,44.2c0.2-0.7-2.8-3.2-3.4-3.4c-1.6-0.4-3.3,3.4-3.3,3.7
		c0,0.2,0,0.5,0.1,0.6C406.9,45.5,413,45.6,413.3,44.2z"/>
	<path d="M500,80c0,0.1,0,0.3,0,0.5c-0.2,1.3-0.3,2.6-0.8,4.4c-0.7,2.7-2.3,6.2-7.2,10.5c-4.5,4-6.8,4.4-8.3,4
		c-2.6-0.7-3.9-5.4-2.6-10.3c0.6-2.1,2.1-6,7.1-8.9c6.4-3.8,11.7-2.4,14-1.8c3.6,1,5.1,2.1,6,3c3.7,3.3,5.2,8.2,3.8,13.4
		c-1.4,5.2-6.1,10.7-13.8,11.3c-3.7,0.3-6.4-0.1-7-0.3c-0.2,0-0.4-0.1-0.3-0.4c0-0.1,0.1-0.1,1.2-0.3c4.6-0.5,14.1-1.6,16.7-11.5
		c0.4-1.5,2.8-11-8-13.9C500.2,79.5,500.1,79.8,500,80z M483.8,88.7c-0.7,2.6-0.6,6.4,1.8,7c1.2,0.3,2.2,0.1,6.1-3.3
		c3-2.6,5.9-6.6,7-10.5c0.6-2.4,0.5-2.6,0-2.8C495,78.2,485.8,81.2,483.8,88.7z"/>
	<path d="M599.8,61.5c1.2,0.6,1.6,0.5,4.8-0.5c9.5-2.9,18.8,0.3,23.7,10.8c5.9,12.7-0.1,24.8-9.6,30.1c-1.1,0.6-1.2,0.7-1.8,2.7
		c-0.8,2.5-2.4,6.8-5.9,11.4c-1.4,1.8-3.1,3.7-3.4,3.9c-0.4,0.2-0.6,0-0.7-0.2c-0.2-0.4,0.9-2.2,1.2-2.7c3.2-5.4,4.6-11.4,4.1-12.3
		c-0.3-0.6-3.9-1-4.5-1.2c-10.2-3-14.2-11-16.2-15.3c-0.5-1-2.2-5.7-2.6-6.7c-0.1-0.2-0.4-0.7-0.8-0.5c-1.2,0.6-4,13.5-0.8,20.4
		c0.5,1,3.6,5.1,4,6c0.8,1.8,0.2,4.1-1.3,4.8c-2.8,1.3-10.5-1.6-15.6-12.7c-1.5-3.3-2.8-7.2-3.5-11.1c-1.1-5.7-1.1-6.4-1.7-7.7
		c-0.6-1.3-1.4-2.2-3.1-3c-0.9-0.5-1.4-0.7-1.5-0.9c-0.3-0.6,1.2-2,1.8-2.3c2.7-1.3,7.9,1.5,8.7,3.2c0.4,0.9,0.3,2.9,0.2,4.4
		c-0.4,7.1,0.9,12.4,2.9,16.7c2.4,5.2,4.3,4.6,4.5,4.6c0.8-0.4,0.8-1.5,1-5.8c0.4-10,1.4-13.5,3.5-20.1c0.4-1.2,0.3-1.4-0.2-3.7
		c-2-9,1.1-12.1,3.3-13.2C594.1,58.8,597.8,60.5,599.8,61.5z M606.7,77.5c-0.7-1.6-2.6-5.3-5.6-8.8c-1.1-1.2-1.4-1.2-2.3-0.8
		c-1.8,0.8-6.7,4.7-8.5,8.2c-0.8,1.5,1,5.7,1.8,7.5c7.1,15.3,18.2,15.8,19.6,14.7C613.8,96.7,609.9,84.4,606.7,77.5z M589,72
		c0.1,0.1,0.1,0.3,0.3,0.2c0.1-0.1,1.1-1.1,1.2-1.4c0.8-1,2.1-2.3,4.4-4.4c1.6-1.4,1.8-1.6,1.6-2c-0.1-0.2-2.8-3.1-5.1-2
		C586.9,64.5,588.9,71.7,589,72z M617.6,95.5c0.2,0.5,0.6,0.4,1,0.2c2.4-1.1,10.1-9.2,3.7-22.8c-1.2-2.5-5-9.7-11.5-9.9
		c-2.7-0.1-5,0.6-5.7,0.9c-0.5,0.2-0.6,0.6-0.4,1c0.1,0.2,0.2,0.3,1.1,1.3c1,1.1,3.4,3.8,6.3,10c3.7,7.8,4.9,14.9,5.2,18.6
		C617.4,95.1,617.5,95.3,617.6,95.5z"/>
	<path d="M712.1,56.7c-0.4,1.7-2.2,3.7-5.1,3.1c-0.8-0.2-1.2-0.3-4.6-2.5c-1.2-0.8-2.5-1.4-3.7-1.7c-3.4-0.8-6.4,1-7.1,4.2
		c-0.2,0.8-0.4,4.5-0.5,5.2c-0.2,0.8-2.1,5.5-2.5,6.6c-1.1,3-3.3,9.9-3.8,12c-0.3,1.3-0.8,3.9,1.3,4.3c1.6,0.4,4.3-0.6,5.3-0.9
		c5.8-2.2,9.4-3.5,14.8-2.3c8.9,2,13.9,9.6,12.4,16.5c-2.3,10.2-17,14-29.1,11.3c-1.1-0.2-2.3-0.5-2.1-1.2c0.1-0.4,2-0.4,2.6-0.5
		c11,0,20.3-4.9,22-12.7c1.9-8.8-5.5-11-7.2-11.3c-2.9-0.6-7.4-0.7-12.2,3.9c-5,4.6-6.3,5.8-9.1,5.2c-3.5-0.8-5.5-5.4-4-11.8
		c0.8-3.5,6.2-18.4,7.1-21.5c0.9-2.9,2.2-7.1,9.8-8.3c5.1-0.9,7.3-1.3,7.8-3.7c0.4-1.6,0-2.6-0.6-4.1c-0.1-0.4-0.2-0.9,0.1-1.1
		C704.1,45,713.1,52.1,712.1,56.7z"/>
	<path d="M793.1,65.2c-0.1,0.6-0.3,0.9-1.5,3c-1.7,2.9-3,5.8-3.7,10c-1.4,8.1,1.7,14.7,4.2,15.1c1.4,0.2,1.8-0.1,4.9-3.7
		c0.6-0.7,2.3-2.4,3-2.3c0.2,0,0.3,0.4,0.3,0.7c-0.1,0.3-0.4,1.3-0.5,1.6c-1.5,3.5-1.8,4.2-2.1,5.9c-0.2,1.4-0.2,2.4-0.1,3.3
		c0.1,0.9,0.3,2.4,0.2,2.8c-0.3,1.6-2.1,2.2-3.5,2c-5.1-0.9-13.8-11.1-11.1-26.4c0.4-2.2,3.2-11.9,3.6-14c0.3-1.6,0.3-3.8,0.2-4.7
		c-0.2-2.1-0.3-2.4-0.2-2.8c0-0.2,0.4-0.3,0.5-0.2C791,56,793.5,63,793.1,65.2z M831.9,73.8c3.5,4,5.6,10.2,4.5,16.6
		c-0.3,1.5-1.1,5.3-4.9,4.6c-3.9-0.7-3.2-5-3-6.1c1.2-6.7,1.7-10-1.8-15c-0.5-0.8-3.3-3.8-3.2-4.3c0-0.2,0.4-0.3,0.8-0.3
		C824.3,69.4,828.9,70.4,831.9,73.8z"/>
</g>
</svg>
